<svg xmlns="http://www.w3.org/2000/svg" width="24" height="24" viewBox="0 0 24 24"><defs><style>.a{fill:rgba(255,113,91,0.2);}.b{fill:#ff715b;}</style></defs><g transform="translate(0 -0.003)"><path class="a" d="M24,12A12,12,0,1,0,12,24,12,12,0,0,0,24,12Z" transform="translate(0 0)"/><path class="b" d="M147.565,133.2l3.363-3.9a1.018,1.018,0,0,0-1.542-1.328l-3.164,3.673-3.164-3.673a1.018,1.018,0,1,0-1.542,1.328l3.363,3.9-3.363,3.9a1.018,1.018,0,1,0,1.542,1.328l3.164-3.673,3.164,3.673a1.018,1.018,0,0,0,1.542-1.328Z" transform="translate(-134.223 -121.198)"/></g></svg>