<svg xmlns="http://www.w3.org/2000/svg" width="24" height="24" viewBox="0 0 24 24"><defs><style>.a{fill:#dfe5fb;}.b{fill:#3b5de7;}</style></defs><g transform="translate(0 -0.003)"><path class="a" d="M24,12A12,12,0,1,0,12,24,12,12,0,0,0,24,12Z" transform="translate(0)"/><path class="b" d="M123.875,153.581c-.3-.788-.915-.664-1.58-.53-.4.084-2.164.609-4.959,3.6a23.919,23.919,0,0,0-2.429,2.987c-.308-.384-.66-.794-1.031-1.17a14.946,14.946,0,0,0-2.462-1.983,1.122,1.122,0,0,0-1.555.38,1.16,1.16,0,0,0,.373,1.58,12.778,12.778,0,0,1,2.043,1.648,17.793,17.793,0,0,1,1.84,2.307,1.122,1.122,0,0,0,1.136.5,1.139,1.139,0,0,0,.9-.855,13.389,13.389,0,0,1,2.823-3.808,11.326,11.326,0,0,1,3.625-2.875l.013,0,.041-.019c.076-.029.116-.04.119-.04l-.033.007v0l.595-.261A1.086,1.086,0,0,0,123.875,153.581Z" transform="translate(-104.691 -145.949)"/></g></svg>