<svg xmlns="http://www.w3.org/2000/svg" width="64" height="64" viewBox="0 0 64 64"><defs><style>.a{fill:none;}.b{fill:#3b5de7;}.c{fill:#ff715b;}.d{fill:#eeb902;}.e{fill:#45cb85;}</style></defs><g transform="translate(-274 -1364)"><rect class="a" width="64" height="64" transform="translate(274 1364)"/><g transform="translate(274 1364.016)"><path class="b" d="M50,32l-6-3v2H39V10h5v2l6-3L44,6V8H38a1,1,0,0,0-1,1V31H25v2H37V55a1,1,0,0,0,1,1h6v2l6-3-6-3v2H39V33h5v2Z"/><circle class="b" cx="10" cy="10" r="10" transform="translate(2 22)"/><path class="c" d="M58.834,7.358a3,3,0,1,0-3.669,0A4.993,4.993,0,0,0,52,12v5H62V12a4.993,4.993,0,0,0-3.166-4.642Z"/><path class="d" d="M58.834,30.358a3,3,0,1,0-3.669,0A4.993,4.993,0,0,0,52,35v5H62V35a4.993,4.993,0,0,0-3.166-4.642Z"/><path class="e" d="M58.834,52.358a3,3,0,1,0-3.669,0A4.993,4.993,0,0,0,52,57v5H62V57a4.993,4.993,0,0,0-3.166-4.642Z"/></g></g></svg>