<svg xmlns="http://www.w3.org/2000/svg" width="973.402" height="741.236" viewBox="0 0 973.402 741.236"><defs><style>.a{fill:#dfe5fb;}.b{fill:#ebeefd;}.c{fill:#d2d2d2;mix-blend-mode:multiply;isolation:isolate;}.d{fill:#fff;}.e{fill:#f7a88d;}.f{fill:#ff715b;}.g{fill:#7291ff;}.h{fill:#3b4467;}.i{fill:#333;}.j{fill:#dadfe0;}.k,.l{fill:none;stroke:#333;stroke-miterlimit:10;}.k{stroke-width:1.348px;}.l{stroke-width:1.367px;}</style></defs><g transform="translate(0 27.621)"><path class="a" d="M240.928,805.109V310.086c35.394-16.756,86.537-32.793,157.886-38.506,171.061-13.7,169.025,132.4,317.685,235.116s136.442-2.282,247.125,4.219S1117.677,645.941,1146.189,730.4c13.3,39.4,41.661,61.9,68.141,74.708Z" transform="translate(-240.928 -91.853)"/><g transform="translate(130 -27.621)"><path class="b" d="M708.893,435.385c103.361,0,135.517,71.205,238.88,110.252,43.684,16.5,118.548,26.03,190.433,31.533h-754.4V466.264c29.185,3.073,64.807,5.871,99.985,5.871C561.889,472.135,605.529,435.385,708.893,435.385Z" transform="translate(-513.808 164.066)"/><ellipse class="c" cx="237.388" cy="10.693" rx="237.388" ry="10.693" transform="translate(111.21 695.331)"/><g transform="translate(12.763)"><path class="d" d="M772.083,189.087l4.376,25.706-4.376,6.016,5.469,18.048-9.3,7.656-6.563,29.532,22.971,18.048-7.111,61.8.548,32.813s57.427,43.752,61.8,49.223S881.466,470.2,881.466,470.2s11.485,5.469,15.313,5.469,24.064-4.923,31.175-9.844,13.672-1.64,13.125,1.64,1.64,27.892,0,28.987-6.016,1.64-6.016,1.64a7.286,7.286,0,0,1-3.828,4.921,26.58,26.58,0,0,1-7.109,2.188s-1.1,4.376-2.735,4.923-7.109,0-7.109,0-13.674.547-15.315-3.828V495.9s-13.672-4.923-18.048-8.2-27.892-19.688-27.892-19.688l-72.192-39.379s7.656,50.316,6.016,65.631-8.2,41.017-8.2,41.017l55.239,68.364L855.762,646.3l35.548,62.9,52.5,85.864,13.125,11.487,12.579-46.488s12.032-13.127,13.672-8.751,2.735,7.111,2.735,7.111l6.016,1.093s2.188,3.281.547,3.828-5.471,2.188-5.471,2.188l3.83,11.484s5.424-1.136,4.374,3.283l-1.048,4.416-1.14,10.349s6.564,2.735,6.564,5.471-4.921,4.921-4.921,4.921v6.563s4.921,4.921,2.733,8.2-9.3,0-9.3,0l-9.3,12.032-.547,3.281s4.921-1.64,4.376,1.64a5.835,5.835,0,0,1-3.283,4.376v4.923s4.923,2.188,4.923,6.016-4.376,4.376-4.376,4.376a6.521,6.521,0,0,1-7.656,4.374c-6.016-1.093-12.032-9.844-14.22-15.313s-6.016-15.313-6.016-15.313l-33.908-39.379-22.971-27.892s-13.672-12.579-25.7-19.688-35.548-31.72-41.567-44.3S804.9,652.868,804.9,652.868l-.547-10.392L767.708,622.24l-29.532,8.2-9.3,16.955L707,676.932s-7.111,10.392-11.487,10.392-37.736-37.736-37.736-37.736l-47.035-43.754-48.128-37.189-61.253-32.815s-30.08-12.032-34.455-13.672-31.175-12.579-31.175-12.579-17-1.54-15.86-5.469,8.751-5.468,8.751-5.468-2.678-6.976,2.188-6.563l4.863.411,8.262-3.146s2-2.849,4.923-2.733,3.281-4.923,9.3-4.923,7.111,3.828,7.111,3.828,4.921-3.281,8.749-3.281,4.376,3.828,4.376,3.828l23.516-1.64S503,478.4,506.833,479.5s4.376,3.281,4.376,3.281l6.016-.545s2.733-3.828,4.921-3.828,1.643,4.921,3.283,5.469,4.375-1.1,4.375,3.828-2.027,12.945-1.095,13.672,9.3,18.048,9.3,18.048,20.236,21.331,35,26.8,67.271,26.252,75.474,31.173,28.985,29.535,28.985,29.535l7.656-19.688,8.2-30.627s-17.5-51.411-17.5-54.144,2.188-68.911,2.188-68.911l-47.035-82.036s-9.844-4.923-7.656-10.939a44.88,44.88,0,0,1,4.923-9.844l-97.9,7.656s-7.656-1.093-7.656-3.281,5.468-25.159,5.468-25.159l10.392-31.173,35-61.8s.855-38.921,2.733-40.472,8.751-4.376,8.751-4.376.547-7.656,2.188-8.2,8.2-4.376,8.2-4.376l4.923-10.939,2.733.547,1.095,17.5,3.828,2.186-1.095,28.987-19.141,19.688-11.487,26.8-6.016,24.611-3.828,32.813L681.3,253.077l15.86-37.191s-1.64-24.064-1.64-30.628S707,165.023,707,165.023a62.759,62.759,0,0,1,6.561-4.921c2.735-1.64,6.016-3.828,6.564-5.471s8.2-3.828,12.032-3.828,8.751,2.188,8.751,2.188,9.844-1.093,11.484-1.093,9.844,12.58,9.844,12.58,11.484,2.733,12.032,7.656-1.64,14.22-1.64,14.22Z" transform="translate(-418.304 -147.586)"/><g transform="translate(0)"><path class="e" d="M606.185,171.616l-18.839-7.992s9.707,14.271,2.284,14.271-11.418-4-9.705,2.284a84.114,84.114,0,0,1,2.284,13.131l-8.563-.571s-5.708-9.134-9.134-4,2.855,14.844,3.995,18.268-2.282,7.423-7.992,5.139-24.549-7.992-24.549-7.992L525.12,230.989h10.845l3.426-12.56,1.142,12.56s17.7,5.708,22.836,7.992,6.85,5.71,6.85,5.71l2.284-27.4,6.85,34.826,13.7,4.566S603.9,233.273,603.9,223s.571-15.415.571-15.415L610.182,219l-4-19.981,4-4.566" transform="translate(-254.089 -130.496)"/><path class="e" d="M664.042,305.937l-41.1,5.71,15.415-6.852s-2.284-21.123,6.85-47.384,18.841-44.529,19.41-46.242,13.131-7.423,14.844-13.7,1.711-22.836,1.711-22.836l-4.566-.571,3.424-25.118-11.989,18.839-3.424.571L660.618,179.2h-2.855l-6.281,38.821s-35.394,58.231-40.534,80.5-6.279,36.537-6.279,36.537l78.212-8.563Z" transform="translate(-496.914 -147.214)"/><path class="e" d="M486.577,233.307s-12.56,49.1-12.56,50.81-19.41,3.995-11.416,6.85,67.936,35.965,83.92,46.813,58.231,51.954,63.37,52.523,41.1-18.268,41.676-14.271,3.995,27.4,3.995,27.4l-4.568-11.418s-5.137-6.279-3.995.571a106.01,106.01,0,0,1,1.142,14.844l-3.426,3.424s-2.282-13.131-2.853-14.842-7.423-2.284-6.852,3.424,2.284,15.986,2.284,15.986h-2.284s-1.14-13.7-4.566-14.844-6.281,0-6.281,4a41.665,41.665,0,0,0,1.142,8.563h-2.853L619.6,401.149s-5.139,2.855-17.126-6.279-33.113-20.552-57.662-34.826-84.491-45.671-91.343-58.8-3.995-40.534-2.853-50.81,1.711-15.984,1.711-15.984S467.167,224.744,486.577,233.307Z" transform="translate(-136.763 -55.173)"/><path class="e" d="M528.688,361.429s18.271,23.405,26.831,39.963,15.986,37.679,10.847,37.679-17.7-13.7-17.7-13.7L577.784,456.2s-5.137,9.136-11.987,13.131-11.989,4.566-11.989,4.566a92.086,92.086,0,0,1-25.12-38.25c-7.992-23.976-10.847-34.824-10.847-34.824L481.875,379.7Z" transform="translate(-129.206 94.732)"/><path class="e" d="M634.659,386.155s-28.542,41.676-34.252,43.96-53.665-39.963-53.665-39.963,13.7-10.276,15.984-17.128a39.949,39.949,0,0,0,2.284-11.416s.571,2.853,10.847,11.987a124.482,124.482,0,0,1,17.126,18.841l-5.137-17.7,10.276-19.981S629.522,378.163,634.659,386.155Z" transform="translate(-324.808 87.133)"/><path class="f" d="M626.06,195.123s13.334,3.61,23.427,5.051,21.673,8.651,21.673,8.651l4.281,11.536-27.4-1.441s47.582,14.419,53.35,24.513,3.448,29.331,3.448,29.331-20.749,2.391-25.075,2.391-11.536,37.488-10.094,51.907,38.932,34.607,40.375,40.375S707.163,428,707.163,428s-33.164-17.3-46.141-17.3-41.815-1.441-41.815-1.441l1.441-30.281,10.094-24.511-17.3-14.421-5.768-59.118-4.326,59.118s-31.72-38.93-33.164-43.256-7.209-27.4-7.209-27.4l-14.419-1.441-23.069-24.513,83.629-31.722Z" transform="translate(-355.029 -94.63)"/><path class="g" d="M618.765,315.492,575.509,453.915l-47.583-34.608,15.86-41.815-14.419-30.281L523.6,296.746s24.513-7.209,41.815,1.441S618.765,315.492,618.765,315.492Z" transform="translate(-259.421 17.875)"/><path class="g" d="M538,337.722l40.137,50.7-73.3,25.722Z" transform="translate(-178.652 67.739)"/><path class="f" d="M734.673,406.351s7.688-3.845-27.877-19.226-83.629-44.218-90.359-54.792-12.5-13.459-22.109-12.5-14.421,19.224-14.421,19.224,29.8,12.5,53.834,29.8,74.016,53.832,75.939,56.715a29.565,29.565,0,0,0,5.768,5.768S736.6,420.77,734.673,406.351Z" transform="translate(-496.448 47.176)"/><path class="f" d="M461.093,410.5s2.3-4.534-5.034,1.613a19.885,19.885,0,0,1-1.694,1.272c-8.651,5.768-17.3,11.534-17.3,11.534s27.877,24.032,43.258,36.528,36.528,40.375,48.064,52.872,16.343,21.147,20.187,22.109,7.69-7.691,5.768-10.573-25.957-28.84-33.645-37.49-37.49-57.677-37.49-57.677l.962,18.266s-6.73-23.072-14.419-30.762" transform="translate(-10.429 148.769)"/><path class="h" d="M424.787,485.662s11.536-30.758,12.5-38.448,6.728-25.957,12.5-16.344,16.343,61.524,9.613,68.25-14.419,13.459-14.419,19.226,4.808,24.032-4.806,24.032S421.9,520.269,421.9,520.269,443.051,507.771,424.787,485.662Z" transform="translate(115.276 170.691)"/><path class="h" d="M746.812,308.073s-.96,12.5,0,16.341a61.4,61.4,0,0,0,3.843,9.613s-19.224-7.69-27.875.962a40.311,40.311,0,0,0-10.573,19.224s-37.492-20.187-50.949-23.07-25.955-5.768-23.072-8.653S662.22,310,668.948,309.035s22.107,0,29.8-1.923S740.083,302.305,746.812,308.073Z" transform="translate(-635.474 30.1)"/><path class="d" d="M449.381,461.329s-30.76,8.649-25.955,33.643l6.73,9.615S415.738,477.675,449.381,461.329Z" transform="translate(125.287 208.482)"/><path class="d" d="M693.46,332.149s-22.111-2.883-54.794-24.992c0,0,7.692,14.419,28.839,25" transform="translate(-580.2 32.936)"/><path class="i" d="M539.456,166.573c.65-.693,1.309-1.317,1.972-1.9.973-1.486,6.067-8.961,10.556-9.307,4.983-.383,5.749,1.533,10.734,1.533s9.2-6.9,15.717-4.217,8.433,9.968,13.033,11.119,8.05,1.533,7.667,8.433c-.3,5.389-1.764,7.032-2.393,7.494a14.75,14.75,0,0,1,.811,2.166l-19.791-8.3s4.47,9.577,5.107,14.684-7.883,5.06-7.883,5.06l2.284,13.131-5.892.323a45.732,45.732,0,0,1-7.021-7.661c-3.193-4.468-4.47-2.554-8.94,1.277s5.747,19.154,5.747,19.154-10.216-.637-15.96-1.277-17.24-7.661-17.24-7.661V194.664C527.962,187,529.879,176.789,539.456,166.573Z" transform="translate(-249.149 -143.657)"/><path class="i" d="M525.5,175.243l14.307,9.036s-1.506-8.283-6.025-9.789A10.7,10.7,0,0,0,525.5,175.243Z" transform="translate(-184.536 -118.713)"/><g transform="translate(0 356.332)"><path class="i" d="M696.231,314.75a15.771,15.771,0,0,0-3.088.592,10.8,10.8,0,0,0-2.87,1.307,7.968,7.968,0,0,0-2.692,2.909,9.032,9.032,0,0,0,2.915-.261,8.881,8.881,0,0,0,5.736-4.547Z" transform="translate(-687.58 -314.75)"/></g><g transform="translate(2.883)"><g transform="translate(251.358 17.509)"><g transform="translate(0)"><path class="i" d="M592.467,156.321s-.761.475-2.145,1.456a29.832,29.832,0,0,0-5.364,5.069,28.392,28.392,0,0,0-5.351,10.272,34.389,34.389,0,0,0-1.275,7.1c-.205,2.547-.086,5.231-.083,7.958.079,5.5.162,11.469.252,17.821l.013.6c.019.1-.036.205.045.291-.115.071-.071.143-.113.214-.1.3-.111.528-.27.939q-.395,1.123-.791,2.261-.869,2.284-1.764,4.626-1.851,4.677-3.79,9.57c-5.214,13.02-10.854,27.069-16.408,41.453,0,0,5.146-10.368,13.386-29.3,2.055-4.735,4.3-10.009,6.664-15.811,1.176-2.9,2.4-5.926,3.58-9.128.3-.791.59-1.61.868-2.451a11.949,11.949,0,0,0,.413-1.339,4.852,4.852,0,0,0,.205-1.51q-.074-2.64-.152-5.372-.183-5.463-.374-11.292c-.079-3.9-.507-7.847-.041-11.859a29.366,29.366,0,0,1,12.494-21.562Z" transform="translate(-555.424 -156.321)"/></g></g><g transform="translate(339.489 37.146)"><g transform="translate(0)"><path class="i" d="M522.7,258.921s1.121-3.358,3.082-9.245c.956-2.96,2.117-6.557,3.452-10.687,1.268-4.046,2.7-8.617,4.267-13.612,2.571-1.578,5.263-3.234,8.1-4.977-1.354-4.194-2.78-8.6-4.26-13.185l-1.009-3.272-.473-1.649-.2-.8c-.034-.205-.075-.319-.034-.385.124-.49,1.245-1.382,2.083-2.248a11.144,11.144,0,0,0,1.251-1.512l.267-.428a4.688,4.688,0,0,0,.242-.637,4.062,4.062,0,0,0,.135-1.142,35.934,35.934,0,0,0-1.456-7.421q-1-3.58-2.013-7.233a56.27,56.27,0,0,1-1.591-7.389,29.983,29.983,0,0,0-1.557-7.594,21.552,21.552,0,0,1,.68,3.822c.158,1.275.156,2.827.278,4.735a55.143,55.143,0,0,0,1.025,6.478c.5,2.419,1.144,5.09,1.8,8.013.323,1.461.652,2.99.885,4.562a10.4,10.4,0,0,1,.135,2.278.844.844,0,0,1-.073.4.619.619,0,0,0-.032.143l-.156.237a7.684,7.684,0,0,1-.734.92c-.547.6-1.2,1.136-1.92,1.822a4.454,4.454,0,0,0-1.059,1.422,3.152,3.152,0,0,0,0,1.972c.462,1.927,1.041,3.773,1.634,5.723q.921,2.9,1.9,5.967.9,2.692,1.846,5.533l-7.261,4.656c-1.424,5.208-2.945,10.766-4.547,16.63C525.9,246.568,524.333,252.616,522.7,258.921Z" transform="translate(-522.697 -165.503)"/></g></g><g transform="translate(285.706 2.278)"><g transform="translate(0)"><path class="i" d="M553.692,225.007l-3.39.242-1.867.135c-.167.009-.3.028-.436.024l-.224-.417-.562-1.037q-1.168-2.156-2.693-4.966t-3.386-6.232c-1.232-2.171-2.012-5.193-.449-7.729,1.568-2.442,4.78-3.924,8.069-4.046a4.685,4.685,0,0,1,4.089,2.278,9.612,9.612,0,0,1,1.164,2.378c.15.426.276.866.385,1.313a13.589,13.589,0,0,1,.312,1.747q2.82.3,5.77.612l2.789.293,2.068.212c-.011-.776-.163-1.749-.186-2.081-.22-1.925-.481-3.884-.826-5.879-.18-1-.374-2-.627-3.016-.135-.507-.269-1.016-.453-1.529a8.334,8.334,0,0,0-.312-.778c-.051-.212-.154-.344-.109-.432-.013-.148.2-.391.654-.545a6.125,6.125,0,0,1,1.384-.342,19.881,19.881,0,0,1,3.092-.145,28.683,28.683,0,0,1,3.169.24,4.562,4.562,0,0,0,1.05.1c.53,0,.843-.515.969-1a6.559,6.559,0,0,0-.045-1.9,50.17,50.17,0,0,0-1.651-6.666q-.526-1.642-1.057-3.311l-.674-1.993q5.649,2.024,11.57,4.143,3.3,1.177,6.673,2.38l.475.169a.9.9,0,0,0,.847-.047,4.111,4.111,0,0,0,.937-.56,6.767,6.767,0,0,0,1.36-1.476,12.034,12.034,0,0,0,1.538-3.518,22.36,22.36,0,0,0,.669-7.537,11.836,11.836,0,0,0-1-3.8,10.224,10.224,0,0,0-2.4-3.178,23.456,23.456,0,0,0-6.709-3.924c-2.327-.935-4.406-2.269-5.428-4.568a17.437,17.437,0,0,0-2-3.46,10.942,10.942,0,0,0-3.186-2.568,17.694,17.694,0,0,0-7.723-2.278,22.547,22.547,0,0,0-8,1.086c-2.483.74-4.951-.541-7.53-1.379a14.437,14.437,0,0,0-8.182-.374,10.07,10.07,0,0,0-3.67,1.972,28.882,28.882,0,0,0-2.784,3.022,16.467,16.467,0,0,1-6.765,4.309,4.441,4.441,0,0,0-1.865.945,6.349,6.349,0,0,0-1.189,1.717,17.8,17.8,0,0,0-1.324,3.918,17.1,17.1,0,0,1,.62-2.01,13.4,13.4,0,0,1,1.095-2.348,5.486,5.486,0,0,1,1.059-1.275,4.913,4.913,0,0,1,1.737-.749,16.881,16.881,0,0,0,8.276-5.7,10.015,10.015,0,0,1,5.285-3.3,13.836,13.836,0,0,1,7.143.488c1.234.376,2.453.935,3.811,1.369a8.006,8.006,0,0,0,4.425.274,21.163,21.163,0,0,1,8.918-.845,16.285,16.285,0,0,1,4.574,1.317,12.778,12.778,0,0,1,4.048,2.729c1.151,1.181,1.659,2.821,2.62,4.51a9.688,9.688,0,0,0,4.4,3.811,50.267,50.267,0,0,1,5.113,2.526,11.338,11.338,0,0,1,4.066,3.832,10.745,10.745,0,0,1,1.3,5.6,21.24,21.24,0,0,1-.89,6.072,9.248,9.248,0,0,1-1.315,2.72,4.641,4.641,0,0,1-1,1.033,2.842,2.842,0,0,1-.533.321h0l-.327-.118q-3.138-1.12-6.367-2.273l-14.6-5.2q.706,1.986,1.42,4.006.449,1.351.9,2.72c.584,1.831,1.148,3.7,1.606,5.6a18.3,18.3,0,0,1,.5,2.838,3.718,3.718,0,0,1-.009.61c0,.038-.009.058-.034.068l-.034,0-.353-.058-.778-.092a24.585,24.585,0,0,0-6.322.079,6.031,6.031,0,0,0-1.655.5,2.113,2.113,0,0,0-.808.672,1.472,1.472,0,0,0-.257,1.166l.167.524.145.342a6.765,6.765,0,0,1,.263.7c.16.477.3.977.424,1.484.5,2.027.841,4.143,1.151,6.275q.183,1.412.372,2.836c.233.2-1.356-.075-2.359-.13q-3.128-.292-6.313-.586c0-.043-.126-.687-.25-1.148a14.426,14.426,0,0,0-.451-1.441,11,11,0,0,0-1.424-2.71,5.578,5.578,0,0,0-5.573-2.256,11.914,11.914,0,0,0-5.712,2.284,6.919,6.919,0,0,0-2.827,5.449,11.41,11.41,0,0,0,2.025,5.907l3.125,5.483q1.572,2.756,3.165,5.548l.2.351c.077.1.1.3.265.229l.8-.077,1.608-.152Z" transform="translate(-524.036 -149.199)"/></g></g><g transform="translate(313.295 85.837)"><g transform="translate(0)"><path class="i" d="M542.744,224.786l2.223.029-.79-36.545Z" transform="translate(-542.744 -188.27)"/></g></g><g transform="translate(263.467 100.318)"><g transform="translate(0)"><path class="i" d="M540.14,195.524a48.7,48.7,0,0,1,5.323-.053,79.4,79.4,0,0,1,14.025,1.773,77.843,77.843,0,0,1,19.036,6.831A79.4,79.4,0,0,1,597.761,218.1s-1.069-1.17-3.045-3.328c-.511-.535-1.052-1.168-1.713-1.794-.686-.6-1.435-1.264-2.243-1.974s-1.67-1.506-2.654-2.263l-3.229-2.31a66.234,66.234,0,0,0-44.736-10.9Z" transform="translate(-540.14 -195.041)"/></g></g><g transform="translate(130.23 106.761)"><g transform="translate(0)"><path class="i" d="M697.956,198.054s-15.935,5.753-39.8,15.911c-11.833,5.321-26.11,10.674-41.284,17.237-15.2,6.512-31.421,13.923-47.711,22.118,0,0,13.236-3.6,36.106-12.068,11.433-4.23,25.272-9.677,41.04-16.483C661.841,217.441,679.185,208.476,697.956,198.054Z" transform="translate(-569.159 -198.054)"/></g></g><g transform="translate(145.074 66.659)"><g transform="translate(0)"><path class="i" d="M611.877,276.705s.443-3.016,1.01-8.379c.6-5.323,1.174-13.155,1.655-22.379.988-9.134,4.023-19.7,7.4-31.1q1.261-4.292,2.566-8.747c.885-2.988,1.563-6.063,2.509-9.025a116.574,116.574,0,0,1,7.459-17.77,66.453,66.453,0,0,0-3.813,6.02,83.559,83.559,0,0,0-7.949,18.747c-2.705,8.313-6.349,18.446-8.894,30.683a79.006,79.006,0,0,0-1.422,9.611c-.3,3.388-.139,6.784-.175,10.261Q612.182,265.09,611.877,276.705Z" transform="translate(-611.877 -179.303)"/></g></g><g transform="translate(100.141 31.044)"><g transform="translate(0)"><path class="i" d="M673.011,162.65s-.543,5.062-1.5,14c-.451,4.478-1,9.925-1.628,16.2q-.228,2.355-.47,4.861-.119,1.251-.242,2.541l-.109,1.119c.03-.026-.334.526-.541.86l-5.948,9.5c-4.117,6.655-8.533,13.929-13.1,21.744s-9.322,16.147-13.831,25.106c-4.587,9.01-7.7,19.034-10.6,29.235-2.851,10.242-5.366,20.811-7.545,31.551,0,0,1.146-3.957,3.3-11.416,2.222-7.438,5.368-18.45,10.285-32.2,1.288-3.407,2.614-7.025,4.3-10.65s3.64-7.391,5.759-11.281c4.219-7.787,9.008-16.142,14.173-25.084q3.891-6.7,8.041-13.841,2.085-3.564,4.232-7.237,1.078-1.835,2.169-3.7l.547-.93.274-.468c.045-.139.359-.453.351-.725l.141-2.329Q672.105,182.02,673.011,162.65Z" transform="translate(-617.492 -162.65)"/></g></g><g transform="translate(104.391 181.191)"><g transform="translate(0)"><path class="i" d="M695.531,237.293l-.315-4.437L593.982,242.6Z" transform="translate(-593.982 -232.856)"/></g></g><g transform="translate(171.181)"><g transform="translate(0)"><path class="i" d="M602.21,213.993s1.191-1.012,3.336-2.838c2.113-1.873,5.205-4.553,8.7-8.272a24.155,24.155,0,0,0,2.558-3.157,4.62,4.62,0,0,0,.8-2.177c.079-.723.158-1.461.242-2.211.274-2.983.485-6.17.686-9.53.171-3.362.351-6.893.537-10.563q.109-2.749.222-5.6l.039-.99c.223-.607-.481-.552-.871-.719l-1.435-.413-2.382-.674c-.156-5.4-.319-11.063-.488-16.876q-2.592-.914-5.218-1.839l4.823,2.113c-.045,1.867-.1,4.228-.169,7.045-.032,3-.071,6.5-.113,10.434l2.893.9,1.29.4.327.1.025.011c.019,0,0,.026,0,.036l-.3,5.8q-.295,6.089-.637,13.157-.193,3.516-.4,7.269c-.147,1.2-.023,2.62-.6,3.516A20.661,20.661,0,0,1,613.844,202C610.414,206.006,606.425,209.941,602.21,213.993Z" transform="translate(-602.21 -148.134)"/></g></g><g transform="translate(156.965 2.019)"><g transform="translate(0)"><path class="i" d="M628.045,149.078l-1.163,2.951c-.361.956-.8,2.113-1.3,3.435-.455,1.253-.969,2.663-1.529,4.2-1.213.284-2.5.588-3.86.9q-2.412.61-5.043,1.27-.34,2.576-.7,5.332-.148,1.258-.3,2.549l-.143,1.3c-.043.408-.1,1.005-.1,1.005l-3.244,1.093-3.589,1.255s.676-.126,1.908-.353l2.314-.475,1.478-.325c.265-.058.537-.12.817-.184.374-.09.757-.184,1.153-.28q.375-2.136.843-4.78.362-2.307.791-5.032l3.694-.973,4.87-1.358q.4-1.4.832-2.889.366-1.335.753-2.75Q627.247,152.176,628.045,149.078Z" transform="translate(-607.078 -149.078)"/></g></g><g transform="translate(176.536 19.811)"><g transform="translate(0)"><path class="i" d="M605.479,179.965l1.092.21,3.723-22.778Z" transform="translate(-605.479 -157.397)"/></g></g><g transform="translate(167.034 13.032)"><path class="i" d="M608.987,174.014l7.2-19.664-.338-.123-7.2,19.663Z" transform="translate(-608.649 -154.228)"/></g><g transform="translate(161.666 150.171)"><g transform="translate(0)"><path class="i" d="M628.246,252.957a186.709,186.709,0,0,0-25.473-34.605S609.963,233.808,628.246,252.957Z" transform="translate(-602.773 -218.352)"/></g></g><g transform="translate(193.347 145.904)"><g transform="translate(0)"><path class="i" d="M604.987,252.4a280.6,280.6,0,0,0-9.611-36.047S597.485,230.808,604.987,252.4Z" transform="translate(-595.376 -216.357)"/></g></g><g transform="translate(183.726 158.86)"><g transform="translate(0)"><path class="i" d="M613.581,246.928a181.848,181.848,0,0,0-17.3-24.513S601.63,232.92,613.581,246.928Z" transform="translate(-596.279 -222.415)"/></g></g><g transform="translate(203.57 150.162)"><g transform="translate(0)"><path class="i" d="M628.829,471.246h4.449a8.964,8.964,0,0,0-.195-1.052c-.1-.394-.133-.417-.2-.644l-.37-1.063-.755-2.017-1.544-3.974-3.135-7.889-6.258-15.742-1.506-3.933a12.09,12.09,0,0,1-.994-3.6c-.173-2.665-.24-5.541-.3-8.341l-.212-16.932-.094-33.9.03-17c.255-.988-.631-1.976-.879-2.455l-1.106-1.809-2.214-3.619-4.425-7.235-35.4-57.867-8.847-14.464c-.712-1.208-1.531-2.4-2.154-3.621a11.723,11.723,0,0,1-.449-4.145,73.38,73.38,0,0,1,.834-8.426c1.737-11.177,4.322-22.2,7.09-33.168-2.947,10.924-5.712,21.9-7.639,33.08a74.144,74.144,0,0,0-.979,8.493,12.244,12.244,0,0,0,.436,4.455c.729,1.471,1.437,2.5,2.158,3.779l8.61,14.609,34.436,58.423,4.3,7.3,2.154,3.651,1.076,1.826c.443.781.556.8.494,1.249l-.306,16.91-.464,33.925-.064,16.983c.019,2.855.028,5.629.177,8.614a15.56,15.56,0,0,0,1.138,4.583l1.461,4.012,6.012,15.875,3,7.919Z" transform="translate(-561.552 -218.348)"/></g></g><g transform="translate(285.653 120.165)"><g transform="translate(0)"><path class="i" d="M521.313,208.683a49.112,49.112,0,0,1,6.7-.723,87.313,87.313,0,0,1,17.691.975,112.19,112.19,0,0,1,24.323,6.747,191.055,191.055,0,0,1,26.981,13.627s-1.322-1.506-4.042-4.185a46.155,46.155,0,0,0-5.287-4.662,63.626,63.626,0,0,0-7.89-5.518,68.842,68.842,0,0,0-40.927-10.486A51.2,51.2,0,0,0,521.313,208.683Z" transform="translate(-521.313 -204.322)"/></g></g><g transform="translate(348.794 144.949)"><g transform="translate(0)"><path class="i" d="M534.768,215.91l-1.168,7.338c-.68,4.688-1.653,11.395-2.829,19.509-1.131,8.093-2.459,17.584-3.9,27.9-1.6,10.257-2.953,21.365-6.972,32.137l.941-1.29a34.081,34.081,0,0,0,2.562-3.978,79.676,79.676,0,0,0,6.544-16.857C534.026,265.595,536.872,243.175,534.768,215.91Z" transform="translate(-519.9 -215.91)"/></g></g><g transform="translate(338.349 233.629)"><g transform="translate(0)"><path class="i" d="M469.37,257.376s4.54,2.051,12.212,6.288a192.4,192.4,0,0,1,30.044,20.345c2.8,2.442,5.744,5.126,8.828,7.93q4.655,4.132,9.628,8.55c6.672,5.828,13.826,11.9,21.408,18.069S567.065,331,575.566,337.066a150.958,150.958,0,0,0,13.379,8.533,102.088,102.088,0,0,0,14.515,6.94,115.8,115.8,0,0,1-9.816-6.251c-3.11-2.169-6.906-4.912-11.206-8.339-4.279-3.428-9.115-7.575-14.545-12.229-10.851-9.329-24.081-20.749-39.535-33.756-3.9-3.249-7.772-6.621-12.077-10.056a124.321,124.321,0,0,0-13.912-9.581A163.745,163.745,0,0,0,469.37,257.376Z" transform="translate(-469.37 -257.376)"/></g></g><g transform="translate(305.435 143.109)"><g transform="translate(0)"><path class="i" d="M638.741,419.125s-2.22-.466-6.268-1.792a39.718,39.718,0,0,1-7.162-3.086,19.353,19.353,0,0,1-3.82-3.073l-4.149-3.892c-2.971-2.673-6.294-5.813-10.717-8.071l-13.895-7.378c-9.934-5.263-21.14-11.281-33.309-18.069s-25.313-14.333-38.9-22.943c-6.8-4.271-13.621-8.98-20.736-13.687-7.079-4.726-14.468-9.412-21.782-14.365-3.452-2.566-7.755-4.957-8.091-8.888a54.418,54.418,0,0,1-.1-6.619q.1-3.413.207-6.859.465-13.807.947-28.008c.242-9.461.419-19.042.1-28.713-.122-2.419-.259-4.842-.548-7.271-.282-2.4-.577-4.786-.65-7.2a45.684,45.684,0,0,1,.229-7.235,18.959,18.959,0,0,1,1.933-6.921,6.716,6.716,0,0,0-.646,1.168,19.384,19.384,0,0,0-1.234,3.824,50.589,50.589,0,0,0-.526,15.768c.584,6.869.368,15.439-.009,25.518s-1.033,21.7-1.722,34.759q-.228,4.9-.473,10.079c-.07,1.728-.124,3.477-.137,5.285a12.7,12.7,0,0,0,1,5.8,14.5,14.5,0,0,0,3.959,4.5c1.486,1.225,3.033,2.323,4.6,3.426,3.146,2.171,6.388,4.305,9.7,6.491,13.287,8.6,27.308,18.619,43.267,28,15.884,9.436,33.219,18.811,51.776,28.29l14.139,7.137,7.224,3.6a62.312,62.312,0,0,1,7.124,3.875c4.485,3.084,8.488,6.974,12.759,10.633a25.039,25.039,0,0,0,7.62,3.736A70.122,70.122,0,0,0,638.741,419.125Z" transform="translate(-467.291 -215.05)"/></g></g><g transform="translate(293.767 144.478)"><g transform="translate(0)"><path class="i" d="M560.335,266.14a110.119,110.119,0,0,1-6.589-14.716c-3.407-9.13-7.006-21.985-7.346-35.734,0,0,0,1.315,0,3.721a80.663,80.663,0,0,0,.9,10.586A102.406,102.406,0,0,0,560.335,266.14Z" transform="translate(-546.398 -215.69)"/></g></g><g transform="translate(359.222 280.042)"><g transform="translate(0)"><path class="i" d="M519.561,279.078l.627,5.22c.4,3.328.9,8.105,1.375,13.89s.877,12.592,1.236,19.992c.34,7.372.706,15.33,1.086,23.589,0,0,.259-1.523.6-4.416s.727-7.164.89-12.659a154.376,154.376,0,0,0-.7-19.932A133.914,133.914,0,0,0,519.561,279.078Z" transform="translate(-519.561 -279.078)"/></g></g><g transform="translate(275.011 313.056)"><g transform="translate(0)"><path class="i" d="M610.186,323.6a1.286,1.286,0,0,1,.511.145c.169.075.37.19.622.334a2.423,2.423,0,0,0,1.029.359l.808.056-.665-.494-4.358-3.221c-.922-.689-2.019-1.322-3.169-2.075-1.17-.725-2.4-1.58-3.8-2.316q-2.092-1.152-4.444-2.442l-5.077-2.455c-1.794-.813-3.7-1.587-5.665-2.423-1.978-.806-4.068-1.538-6.211-2.342-2.158-.755-4.408-1.459-6.711-2.211-2.327-.667-4.709-1.377-7.167-2.025-2.466-.6-4.972-1.3-7.56-1.835-2.581-.575-5.214-1.142-7.9-1.634a336.422,336.422,0,0,0-33.945-4.506l6.966,1.467c4.562.935,11.281,2.256,19.855,4.061,4.288.9,9.038,1.938,14.194,3.182,2.59.577,5.25,1.322,8.039,2.006,2.759.781,5.652,1.5,8.593,2.423l4.5,1.364,4.6,1.542c1.57.488,3.107,1.131,4.7,1.7s3.2,1.191,4.793,1.884c3.24,1.287,6.476,2.819,9.782,4.44q2.435,1.3,4.934,2.637,2.428,1.466,4.917,2.973h0C611.632,324.238,610.926,323.586,610.186,323.6Z" transform="translate(-516.48 -294.515)"/></g></g><g transform="translate(258.343 309.645)"><g transform="translate(0)"><path class="i" d="M587.185,295.611s-.99-.355-2.772-.864a49.743,49.743,0,0,0-7.6-1.557,31.865,31.865,0,0,0-11.29.533,26.206,26.206,0,0,0-3.08.964,24.994,24.994,0,0,0-3.018,1.362,25.965,25.965,0,0,0-2.855,1.784,29.831,29.831,0,0,0-2.641,2.122s.832-.274,2.3-.873c.765-.239,1.655-.629,2.746-.962,1.076-.366,2.32-.731,3.717-1.1a51.3,51.3,0,0,1,10.325-1.465C577.1,295.324,581.851,295.534,587.185,295.611Z" transform="translate(-553.929 -292.92)"/></g></g><g transform="translate(246.753 126.377)"><g transform="translate(0)"><path class="i" d="M583.355,207.226s-.347.406-.958,1.219a22.711,22.711,0,0,0-2.166,3.854,42.7,42.7,0,0,0-2.207,6.54c-.68,2.575-1.253,5.528-1.963,8.674-.4,1.576-.7,3.285-1.076,5.007q-.539,2.6-1.112,5.364c-.742,3.7-1.529,7.616-2.348,11.7-1.572,8.176-3.1,17.058-4.053,26.188,0,0,2.023-6.6,4.947-18.493,1.448-5.95,3.125-13.238,4.628-21.765.378-2.136.725-4.337,1.076-6.6.415-2.275.706-4.658,1.042-7.055a73.115,73.115,0,0,1,1.311-7.336A24.732,24.732,0,0,1,583.355,207.226Z" transform="translate(-567.471 -207.226)"/></g></g><g transform="translate(280.882 153.817)"><g transform="translate(0)"><path class="i" d="M573.876,270.443l-4.288-2.586-1.089-.64c-.156-.1-.558-.565-.864-.866-.646-.7-1.409-1.382-2.087-2.252-.7-.849-1.486-1.7-2.186-2.725-.744-.98-1.495-2.036-2.2-3.193-.768-1.116-1.429-2.374-2.171-3.64-.682-1.3-1.409-2.639-2.064-4.072q-1.02-2.127-1.968-4.444t-1.867-4.771c-2.451-6.548-4.632-13.852-7.265-21.2,0,0,.163,1.463.6,4.2s1.127,6.747,2.414,11.827c.663,2.534,1.461,5.34,2.564,8.339.528,1.508,1.174,3.048,1.861,4.641.736,1.574,1.48,3.219,2.423,4.838a49.981,49.981,0,0,0,3.1,4.9c.605.8,1.2,1.617,1.85,2.412l2.074,2.34q1.142,1.091,2.32,2.216c.828.7,1.7,1.369,2.558,2.057C569.7,268.889,571.716,269.556,573.876,270.443Z" transform="translate(-545.823 -220.057)"/></g></g><g transform="translate(308.26 173.297)"><g transform="translate(0)"><path class="i" d="M522.764,240.79l.847-.907c.284-.289.59-.684,1.033-1.069s.9-.877,1.478-1.354c.6-.451,1.2-1.029,1.961-1.506a22.214,22.214,0,0,1,5.456-2.823,12.693,12.693,0,0,1,1.685-.526,12.92,12.92,0,0,1,1.8-.411,14.36,14.36,0,0,1,1.908-.28,17.039,17.039,0,0,1,2-.135,28.719,28.719,0,0,1,4.243.188,39.486,39.486,0,0,1,4.468.8l2.4.642c.759.167,1.559.374,2.35.59a56.974,56.974,0,0,1,9.6,3.565,34.268,34.268,0,0,1,4.62,2.654,24.449,24.449,0,0,1,4.136,3.563l-.541-.877a17.9,17.9,0,0,0-1.833-2.432,26.071,26.071,0,0,0-3.719-3.3,34.293,34.293,0,0,0-5.83-3.456,44.4,44.4,0,0,0-7.96-2.894c-.552-.133-1.459-.417-2.2-.62-.787-.207-1.606-.364-2.431-.547a30.472,30.472,0,0,0-5.27-.49,22.059,22.059,0,0,0-16.294,6.482A27.077,27.077,0,0,0,522.764,240.79Z" transform="translate(-522.764 -229.165)"/></g></g><g transform="translate(307.473 159.62)"><g transform="translate(0)"><path class="i" d="M525.662,238.651l.686-.868c.456-.562,1.082-1.422,1.95-2.459q.68-.757,1.5-1.666a21.072,21.072,0,0,1,1.865-1.878,33.038,33.038,0,0,1,4.972-3.931c.5-.3.984-.648,1.514-.939l1.662-.817a23.6,23.6,0,0,1,7.691-2.173,12.912,12.912,0,0,1,2.141-.175c.727,0,1.461-.081,2.2-.028l2.248.139c.753.068,1.508.207,2.273.306a46.222,46.222,0,0,1,4.609.954c1.538.415,3.092.851,4.63,1.394,1.561.475,3.073,1.125,4.632,1.683l-3.251-1.531c-1.095-.426-2.425-1.031-4.057-1.576a47.28,47.28,0,0,0-5.714-1.608c-1.106-.165-2.261-.449-3.5-.535a26.472,26.472,0,0,0-3.909-.148,27.6,27.6,0,0,0-4.245.423,26.275,26.275,0,0,0-4.412,1.315,13.893,13.893,0,0,0-2.2,1.009,15.509,15.509,0,0,0-2.162,1.245c-.689.488-1.437.915-2.1,1.476l-2.013,1.7A40.017,40.017,0,0,0,528.992,234,53.882,53.882,0,0,0,525.662,238.651Z" transform="translate(-525.662 -222.77)"/></g></g><g transform="translate(309.567 146.554)"><g transform="translate(0)"><path class="i" d="M563.589,217.425l-.828-.175a19.819,19.819,0,0,0-2.374-.413l-1.726-.167c-.631-.019-1.317,0-2.053,0a22.318,22.318,0,0,0-2.337.193,24.55,24.55,0,0,0-2.573.462c-.894.188-1.8.5-2.75.776-.913.374-1.9.684-2.842,1.157a30.185,30.185,0,0,0-2.887,1.495c-.984.522-1.908,1.191-2.885,1.818a53.306,53.306,0,0,0-5.548,4.547,68.844,68.844,0,0,0-5.122,5.46s.723-.669,2.008-1.863c.672-.595,1.471-1.356,2.466-2.194.977-.855,2.132-1.809,3.462-2.832a51.912,51.912,0,0,1,4.555-3.182c.84-.569,1.784-1.039,2.729-1.593.988-.468,1.98-1.033,3.08-1.446a34.842,34.842,0,0,1,3.42-1.238,30.608,30.608,0,0,1,3.781-.819,13.514,13.514,0,0,1,2.01-.229,16.762,16.762,0,0,1,2.081-.081A31.893,31.893,0,0,1,563.589,217.425Z" transform="translate(-529.664 -216.661)"/></g></g><g transform="translate(309.561 135.784)"><g transform="translate(0)"><path class="i" d="M555.138,211.625l-.6.248a11.388,11.388,0,0,0-1.677.8,19.371,19.371,0,0,0-2.438,1.591,29.5,29.5,0,0,0-2.808,2.571,41.927,41.927,0,0,0-5.642,7.776,88.219,88.219,0,0,0-4.88,10.109l1.084-1.8c.721-1.245,1.741-3.007,3-5.176a88.534,88.534,0,0,1,5.049-7.853c.526-.736,1.112-1.461,1.724-2.207a29.205,29.205,0,0,1,2.01-2.19,24.361,24.361,0,0,1,2.359-2.083l1.347-.943Q554.386,212.048,555.138,211.625Z" transform="translate(-537.092 -211.625)"/></g></g><g transform="translate(259.157 256.66)"><g transform="translate(0.697 0.284)"><path class="d" d="M582.59,268.278c-8.653,20.187-20.187,39.652-25.955,61.281" transform="translate(-556.636 -268.278)"/></g><g transform="translate(0)"><path class="i" d="M557.721,329.9c3.89-14.6,10.526-28.422,16.944-41.787,3.041-6.335,6.183-12.883,8.974-19.4l-1.324-.569c-2.78,6.484-5.918,13.02-8.952,19.34-6.444,13.426-13.108,27.308-17.036,42.039Z" transform="translate(-556.327 -268.145)"/></g></g><g transform="translate(261.251 268.487)"><g transform="translate(0)"><path class="i" d="M565.372,322.017l.19.205a2.137,2.137,0,0,0,.265.24.216.216,0,0,0,.325-.006.558.558,0,0,0,.047-.312,6.721,6.721,0,0,1,.182-2.964A82.336,82.336,0,0,0,568.83,308.3c.725-4.587,1.279-10.019,1.617-15.909.357-5.894.52-12.242.8-18.715,0,0-.915,4.795-1.668,13.439-.368,4.337-.808,9.573-1.324,15.655-.278,3.035-.624,6.266-1.112,9.671-.237,1.7-.524,3.452-.879,5.225a15.133,15.133,0,0,0-.424,2.75,8.36,8.36,0,0,0,.184,1.4l.062.351c.013.079.053.321-.133.28A2.651,2.651,0,0,1,565.372,322.017Z" transform="translate(-565.372 -273.675)"/></g></g><g transform="translate(277.9 68.719)"><path class="i" d="M575.289,190.354l-.652-.041a10.084,10.084,0,0,1-1.818-.218,22.112,22.112,0,0,1-2.774-.693c-1.061-.314-2.248-.738-3.533-1.236-2.575-.992-5.548-2.314-8.794-3.74a103.418,103.418,0,0,0-10.518-4.16s2.541,1.488,7.16,3.941a83.948,83.948,0,0,0,8.657,3.963,46.771,46.771,0,0,0,5.678,1.764,26.643,26.643,0,0,0,3.208.518A13.747,13.747,0,0,0,575.289,190.354Z" transform="translate(-547.2 -180.266)"/></g><g transform="translate(334.842 53.993)"><g transform="translate(0)"><path class="i" d="M542.477,186.785a3.263,3.263,0,0,0,.419-.028.679.679,0,0,0,.432-.276.881.881,0,0,0-.036-.719,11.311,11.311,0,0,0-2.761-3.244,41.821,41.821,0,0,0-5.167-3.909,34.9,34.9,0,0,0-3.445-1.97,20.7,20.7,0,0,0-2-.855l-.539-.18-.111-.036,0,0,0-.009.015,0h0l.528-.205a4.922,4.922,0,0,1,1.253-.4,5.7,5.7,0,0,1,1.319-.2,6.162,6.162,0,0,1,1.36.028,6.545,6.545,0,0,1,1.367.255,9.1,9.1,0,0,1,2.624,1.153,11.406,11.406,0,0,1,2.3,1.891,7.931,7.931,0,0,1,.975,1.176,8.451,8.451,0,0,1,.83,1.309,9.232,9.232,0,0,1,.657,1.422,9.84,9.84,0,0,1,.456,1.516,13.863,13.863,0,0,1,.225,1.589c.021.537-.032,1.078-.043,1.625l.077-.411a12.28,12.28,0,0,0,.195-1.232,9.858,9.858,0,0,0-.094-2.055,6.464,6.464,0,0,0-.271-1.3,8.566,8.566,0,0,0-.507-1.439,11.362,11.362,0,0,0-1.927-3.069,13.283,13.283,0,0,0-1.5-1.482,12.084,12.084,0,0,0-1.94-1.24,10.325,10.325,0,0,0-2.34-.877l-1.311-.207c-.449-.032-.911,0-1.375,0a8.761,8.761,0,0,0-2.787.65l-.729.293c-.368.186-.774.464-1.161.693l-2.284,1.409c.753.068,2.149.075,2.8.225l.6.094a3.118,3.118,0,0,1,.43.1c.171.053.342.094.513.158a21.771,21.771,0,0,1,2.094.836,44.173,44.173,0,0,1,4.279,2.278,50.193,50.193,0,0,1,4.335,2.9,19.856,19.856,0,0,1,2.074,1.764,4.553,4.553,0,0,1,.849,1.082.562.562,0,0,1,0,.661A1.042,1.042,0,0,1,542.477,186.785Z" transform="translate(-525.182 -173.38)"/></g></g><g transform="translate(342.008 67.974)"><g transform="translate(0)"><path class="i" d="M534.206,179.937a6.783,6.783,0,0,0-2.56.312,9.331,9.331,0,0,0-4.669,3.3,8.481,8.481,0,0,0,2.175-.663A35.009,35.009,0,0,0,534.206,179.937Z" transform="translate(-526.978 -179.918)"/></g></g><g transform="translate(342.087 70.936)"><g transform="translate(0)"><path class="i" d="M527.992,182.071a1.685,1.685,0,0,1,.537-.1,2.051,2.051,0,0,1,1.14.5,15.576,15.576,0,0,1,1.484,1.341c.55.543,1.148,1.123,1.781,1.846a2.384,2.384,0,0,0,.036-.55,3.876,3.876,0,0,0-.4-1.478,4.5,4.5,0,0,0-1.6-1.784,3.164,3.164,0,0,0-1.491-.53,1.742,1.742,0,0,0-.888.148A1.253,1.253,0,0,0,527.992,182.071Z" transform="translate(-527.992 -181.303)"/></g></g><g transform="translate(347.036 76.741)"><g transform="translate(0)"><path class="i" d="M526.122,184.017s.2.443.5,1.219A29.051,29.051,0,0,1,527.7,188.5c.766,2.755,1.335,6.531,2.015,10.618a15.359,15.359,0,0,0,.434-4.322,18.506,18.506,0,0,0-.776-5A14.489,14.489,0,0,0,526.122,184.017Z" transform="translate(-526.122 -184.017)"/></g></g><g transform="translate(333.364 39.231)"><g transform="translate(0)"><path class="i" d="M531.7,166.478s.3.614.77,1.713a47.338,47.338,0,0,1,1.721,4.673,108.6,108.6,0,0,1,3.272,15.231,45.243,45.243,0,0,0-.477-6.1,46.46,46.46,0,0,0-1.486-6.974A34.083,34.083,0,0,0,531.7,166.478Z" transform="translate(-531.705 -166.478)"/></g></g><g transform="translate(334.805 61.554)"><g transform="translate(0)"><path class="i" d="M537.179,176.916s-.727,1.422-2.053,3.469a45.782,45.782,0,0,0-4.433,8.065s.744-1.069,2.008-2.979c.629-.958,1.4-2.128,2.216-3.533A22.876,22.876,0,0,0,537.179,176.916Z" transform="translate(-530.693 -176.916)"/></g></g><g transform="translate(334.08 72.387)"><g transform="translate(0)"><path class="i" d="M531,181.981s.595,4.735,2.166,11.9c.759,3.582,1.715,7.774,2.579,12.351a99.918,99.918,0,0,1,1.743,14.68s.043-.96.058-2.782A69.617,69.617,0,0,0,537,210.2a121.05,121.05,0,0,0-2.286-12.269C533.637,193.2,532.225,187.9,531,181.981Z" transform="translate(-531.004 -181.981)"/></g></g><g transform="translate(335.526 110.591)"><g transform="translate(0)"><path class="i" d="M536.047,199.845l-.145,1.57a41.019,41.019,0,0,1-.652,4.125A54.732,54.732,0,0,1,531,217.854s.274-.374.742-1.112a27.549,27.549,0,0,0,1.79-3.371A28.636,28.636,0,0,0,536.047,199.845Z" transform="translate(-531.004 -199.845)"/></g></g><g transform="translate(308.171 59.707)"><g transform="translate(0)"><path class="i" d="M541.942,176.5l.612-.184a1.683,1.683,0,0,1,.74-.126,2.048,2.048,0,0,1,.986.148,3.081,3.081,0,0,1,1.067.624,6.363,6.363,0,0,1,.945,1.155,14.751,14.751,0,0,1,1.542,3.319c.456,1.279.862,2.708,1.3,4.235.224.766.436,1.553.75,2.363a3.154,3.154,0,0,0,.246.554s.03-.011-.032.019a3.653,3.653,0,0,1-1.091.432,2.537,2.537,0,0,1-2.171-.778A8.306,8.306,0,0,1,545.3,186.1a25.242,25.242,0,0,1-1.895-5.312,20.109,20.109,0,0,0,.368,2.057,19.388,19.388,0,0,0,.7,2.436,10.164,10.164,0,0,0,1.664,3.073,3.618,3.618,0,0,0,1.79,1.234,3.027,3.027,0,0,0,2.389-.336l.4-.214c.173-.092.417-.165.218-.374a7.909,7.909,0,0,1-.349-.712c-.141-.366-.278-.744-.4-1.146-.244-.806-.5-1.64-.761-2.511a27.223,27.223,0,0,0-2.171-5.426,6.238,6.238,0,0,0-2.115-2.391A3.145,3.145,0,0,0,541.942,176.5Z" transform="translate(-541.942 -176.052)"/></g></g><g transform="translate(472.542 315.454)"><path class="i" d="M451.432,308.626a33.1,33.1,0,0,0,3.428.086,44.328,44.328,0,0,0,9.1-1.14,62.81,62.81,0,0,0,12.425-4.3,94.242,94.242,0,0,0,13.307-7.635s-.98.255-2.769.851-4.395,1.538-7.665,2.819c-3.279,1.264-7.207,2.906-11.8,4.607A100.586,100.586,0,0,1,451.432,308.626Z" transform="translate(-451.432 -295.636)"/></g><g transform="translate(509.378 313.327)"><g transform="translate(0)"><path class="i" d="M447.088,298.92s1.493-.312,3.435-.781c.977-.242,2.075-.52,3.257-.881,1.2-.344,2.451-.781,4.023-1.2a3.759,3.759,0,0,0-.734-.59,5.71,5.71,0,0,0-2.447-.8,7.319,7.319,0,0,0-3.85.708A8.11,8.11,0,0,0,447.088,298.92Z" transform="translate(-447.088 -294.642)"/></g></g><g transform="translate(518.814 318.957)"><g transform="translate(0)"><path class="i" d="M446.841,297.274s-.389,3.616-.438,9.081c-.083,5.49.133,12.7.441,20.452,0,0,.306-.68.734-2.008a34.691,34.691,0,0,0,1.255-5.909A56.158,56.158,0,0,0,446.841,297.274Z" transform="translate(-446.384 -297.274)"/></g></g><g transform="translate(511.467 347.786)"><g transform="translate(0)"><path class="i" d="M455.936,310.754l-.143.212a1.716,1.716,0,0,1-.389.477,1.05,1.05,0,0,1-.306.225,1.693,1.693,0,0,1-.376.167,4.615,4.615,0,0,1-1,.207c-1.572.244-4.153.135-7.032,1.471a5.972,5.972,0,0,0,.751.485,7.918,7.918,0,0,0,2.168.834,7.258,7.258,0,0,0,3.64-.1,5.784,5.784,0,0,0,1.112-.464,4.578,4.578,0,0,0,1.084-.823,2.966,2.966,0,0,0,.7-1.311,4.171,4.171,0,0,0,.011-.727A5.328,5.328,0,0,0,455.936,310.754Z" transform="translate(-446.689 -310.754)"/></g></g><g transform="translate(510.554 325.456)"><g transform="translate(0)"><path class="i" d="M450.182,300.313s-.107,3.362-.053,8.416c.092,5.047.287,11.934,2.213,18.97a44.491,44.491,0,0,0,.8-7.5,58.517,58.517,0,0,0-.327-8.676A46.732,46.732,0,0,0,450.182,300.313Z" transform="translate(-450.113 -300.313)"/></g></g><g transform="translate(504.288 352.213)"><g transform="translate(0)"><path class="i" d="M457.167,312.824s.18.381.481.913c.062.261.244.627.133.787a.413.413,0,0,1-.165.207c-.083.039-.135.043-.274.1-.068.03-.327.1-.511.184l-.723.227c-.558.15-1.14.3-1.769.47-1.29.323-2.671.819-4.279,1.217a2.883,2.883,0,0,0,.776.6,6.435,6.435,0,0,0,2.562.772,7.942,7.942,0,0,0,1.895-.047,6.948,6.948,0,0,0,2.226-.714,4.437,4.437,0,0,0,1.2-.868,2.365,2.365,0,0,0,.785-1.758,1.537,1.537,0,0,0-.323-.928,1.5,1.5,0,0,0-.607-.6A3.856,3.856,0,0,0,457.167,312.824Z" transform="translate(-450.06 -312.824)"/></g></g><g transform="translate(500.648 333.367)"><g transform="translate(0)"><path class="i" d="M455.08,304.012a48.224,48.224,0,0,0-.571,9.806c.12,5.978,1.3,13.732,2.733,21.915,0,0,.205-.77.443-2.243a42.342,42.342,0,0,0,.43-6.45,74.062,74.062,0,0,0-.815-10.015C456.757,313.17,455.938,308.873,455.08,304.012Z" transform="translate(-454.48 -304.012)"/></g></g><g transform="translate(492.769 360.619)"><g transform="translate(0)"><path class="i" d="M465.575,318.222s-.379-.064-.986-.126-1.435-.18-2.35-.344-1.923-.389-3.129-.618a16.714,16.714,0,0,0-4.262-.353,7.227,7.227,0,0,0,2.387,2.3,7.027,7.027,0,0,0,3.668,1.078A6.553,6.553,0,0,0,465.575,318.222Z" transform="translate(-454.848 -316.755)"/></g></g><g transform="translate(489.726 342.794)"><g transform="translate(0)"><path class="i" d="M458.93,308.42l.436,1.938c.287,1.219.59,2.971.911,5.073.3,2.149.646,4.6,1.024,7.312a52.117,52.117,0,0,0,1.942,8.7,33.4,33.4,0,0,0-.032-14A21.886,21.886,0,0,0,458.93,308.42Z" transform="translate(-458.93 -308.42)"/></g></g><g transform="translate(477.662 355.62)"><g transform="translate(0)"><path class="i" d="M475.484,324.011l.291.073.355.079.233.047.066.013a.4.4,0,0,0,.137-.026.372.372,0,0,0,.227-.349c-.056-.267-.088-.212-.128-.261a1.215,1.215,0,0,0-.3-.113l-1.268-.4c-.235-.086-.492-.173-.727-.282a3.607,3.607,0,0,1-.329-.169l-.1-.083c-.028-.015.006-.017.006-.017a1.3,1.3,0,0,1-.261.284l-.113-.509c-3.627-1.593-8.957-4.82-15.308-7.877a15.693,15.693,0,0,0,3.1,3.753,22.991,22.991,0,0,0,4.583,3.319,20.372,20.372,0,0,0,7.171,2.41l-.331-.195a2.281,2.281,0,0,0,1.332.415,8.444,8.444,0,0,0,1.116-.011c.366-.024.738-.066,1.1-.111.049-.024.1.034.009-.1.1-.227.062-.066.036-.107l-.066.017-.274.068Z" transform="translate(-458.262 -314.417)"/></g></g><g transform="translate(474.802 341.227)"><g transform="translate(0)"><path class="i" d="M470.278,324.383l.225-.344a5.635,5.635,0,0,0,.56-1.046,7.653,7.653,0,0,0,.539-1.809,10.451,10.451,0,0,0,.1-2.474,13.853,13.853,0,0,0-1.921-5.779,19.844,19.844,0,0,0-4.566-5.244,11.33,11.33,0,0,0,.3,1.317,33.074,33.074,0,0,0,1.21,3.441c.562,1.427,1.347,3.069,2.1,4.968A15.992,15.992,0,0,1,470.278,324.383Z" transform="translate(-465.218 -307.687)"/></g></g><g transform="translate(465.394 341.913)"><g transform="translate(0)"><path class="i" d="M478.376,313.263l.633-.163a2.21,2.21,0,0,1,.659-.088c.015,0,.019,0,.011.011a1.429,1.429,0,0,1-.015-.246c-.045-.18.1-.278.008-.255a.466.466,0,0,1-.188-.329.343.343,0,0,1,.036-.178c.058-.1.03-.066.036-.107l.017-.1-.545-.115c-.742-.156-1.64-.312-2.663-.43-.511-.058-1.052-.107-1.621-.141l-.87-.041-.426-.011c-.028-.009.068.015-.092-.03A19.745,19.745,0,0,1,470.1,309.7a25.711,25.711,0,0,0-3.982-1.694s.19.336.571.9a15.6,15.6,0,0,0,1.85,2.295,9.149,9.149,0,0,0,4.224,2.517,1.408,1.408,0,0,0,.639.079l.357-.013.689-.041q.7-.048,1.444-.143a28.413,28.413,0,0,0,3.135-.575l-.417-.173a1.176,1.176,0,0,0,1.005.222.8.8,0,0,0,.293-.15.52.52,0,0,0,.19-.276.393.393,0,0,0-.073-.359c-.139-.148-.152-.1-.212-.133a.469.469,0,0,0-.327.043,1.4,1.4,0,0,0-.169.1A5.018,5.018,0,0,0,478.376,313.263Z" transform="translate(-466.119 -308.008)"/></g></g><g transform="translate(274.089 319.669)"><g transform="translate(0)"><path class="i" d="M611.831,300.49s.013-.53.068-2.883l-.639.011c-.049,1.64-.083,4.838-.486,9.387-.376,4.547-1.121,10.441-2.4,17.456-1.26,7.019-3.086,15.148-5.389,24.218-1.151,4.53-2.41,9.324-3.764,14.29-1.491,4.936-2.934,10.114-4.7,15.432-1.651,5.351-3.6,10.822-5.554,16.485-2.07,5.625-4.2,11.422-6.587,17.3-1.131,2.964-2.419,5.907-3.68,8.9q-1.861,4.507-3.948,9.038c-2.69,6.08-5.652,12.192-8.745,18.371-1.6,3.06-3.127,6.2-4.816,9.282-1.7,3.071-3.362,6.2-5.124,9.3l-5.443,9.3q-2.868,4.6-5.768,9.26-3.038,4.571-6.1,9.19-3.208,4.526-6.444,9.087l-6.786,8.954q-3.558,4.382-7.132,8.786l3.127-3.129q1.54-1.566,3.824-3.882c1.531-1.536,3.159-3.445,5.079-5.552s4.036-4.5,6.234-7.239c2.235-2.714,4.7-5.669,7.164-9.023q1.877-2.5,3.9-5.18,1.925-2.756,3.98-5.7c2.793-3.9,5.464-8.238,8.388-12.778,2.757-4.637,5.768-9.483,8.567-14.772,2.923-5.223,5.714-10.841,8.606-16.718q2.056-4.459,4.2-9.106,2.008-4.706,4.093-9.6c2.675-6.568,5.3-13.446,7.772-20.646s4.8-14.718,6.989-22.528c1.086-3.912,2.072-7.919,3.122-11.964.932-4.081,1.837-8.2,2.712-12.4,1.734-8.4,3.319-17.094,4.382-26.089a146.2,146.2,0,0,0,.926-27.732l.237,0C611.739,298.475,611.784,299.483,611.831,300.49Z" transform="translate(-518.394 -297.607)"/></g></g><g transform="translate(34.757 370.62)"><g transform="translate(0)"><path class="i" d="M800.855,496.868l1.923.021.376,0-.12-.362a16.869,16.869,0,0,0-1.223-2.992,28.271,28.271,0,0,0-3.514-5.116c-1.621-1.957-3.756-4.083-6.1-6.5-2.124-2.485-4.624-5.537-7.427-8.683-5.61-6.371-12.586-13.672-20.591-21.823-4.038-4.051-8.144-8.439-12.761-12.919q-6.955-6.567-14.564-13.751c-10.193-9.491-21.418-19.579-33.91-29.586-6.247-5-12.817-9.966-19.733-14.784q-5.2-3.609-10.62-7.087c-3.6-2.333-7.233-4.69-10.984-6.972a408.4,408.4,0,0,0-47.991-25.245,454.986,454.986,0,0,0-53-19.639l5.028,2.047c3.323,1.345,8.253,3.364,14.65,6.112s14.26,6.226,23.394,10.6c4.562,2.2,9.451,4.6,14.618,7.271s10.633,5.563,16.329,8.786q8.565,4.786,17.83,10.482c6.187,3.76,12.524,7.956,19.136,12.359a452.53,452.53,0,0,1,41.049,30.989c7.083,5.926,14.294,12.2,21.688,18.741q5.54,4.921,11.245,9.992c1.876,1.7,3.822,3.353,5.685,5.113q2.8,2.663,5.648,5.366c7.626,7.2,15.533,14.481,23.36,22.24q2.939,2.906,5.847,5.916l2.893,3.039a42.175,42.175,0,0,0,2.992,3.039c2.1,1.908,4.235,3.772,6.174,5.871a22.683,22.683,0,0,1,4.763,7.171l.083.225-.252.008C802.2,496.819,801.526,496.842,800.855,496.868Z" transform="translate(-560.618 -321.431)"/></g></g><g transform="translate(1.059 358.237)"><g transform="translate(0)"><path class="i" d="M724.124,341.717l-.045-.408c-.019-.135-.032-.312-.073-.511l-.289-.637a6.58,6.58,0,0,0-1.129-1.551,17.084,17.084,0,0,0-1.906-1.732,67.55,67.55,0,0,0-13.9-7.584,195.832,195.832,0,0,0-21.322-7.6c-4.006-1.189-8.2-2.325-12.522-3.355s-8.771-2-13.315-2.7c0,0,6.491,2.359,18.089,6.245l21.029,7.013c4.068,1.39,8.411,2.874,12.915,4.662,2.248.9,4.553,1.85,6.814,3.022a24.7,24.7,0,0,1,3.3,2.006A5.115,5.115,0,0,1,724.124,341.717Z" transform="translate(-659.621 -315.641)"/></g></g><g transform="translate(106.969 341.047)"><g transform="translate(0)"><path class="i" d="M636.551,307.6l-.152.776a20.069,20.069,0,0,0-.332,2.233,32.218,32.218,0,0,0,.244,8.159,54.079,54.079,0,0,0,3.071,11.241,102.228,102.228,0,0,0,5.828,12.25,62.877,62.877,0,0,0-2.248-9.555q-1.4-4.469-3.343-10.7A66.969,66.969,0,0,1,636.551,307.6Z" transform="translate(-635.912 -307.603)"/></g></g><g transform="translate(111.474 364.198)"><g transform="translate(0)"><path class="i" d="M564,318.428l2.609,3.8c.849,1.247,2.049,2.671,3.383,4.414,1.42,1.668,3.035,3.619,5.024,5.64,1.953,2.062,4.249,4.213,6.826,6.484,1.328,1.086,2.686,2.254,4.147,3.4,1.5,1.1,3,2.308,4.649,3.43A125.664,125.664,0,0,0,601.4,352.36c3.9,2.226,8.127,4.344,12.629,6.373,4.491,2.059,9.3,3.927,14.318,5.749,5.045,1.76,10.152,3.651,15.441,5.691,5.282,2.019,10.667,4.222,16.1,6.649,2.748,1.155,5.411,2.558,8.17,3.843,2.723,1.354,5.409,2.846,8.148,4.305a128.133,128.133,0,0,1,15.713,10.5,93.176,93.176,0,0,1,14.008,13.48q1.482,1.973,2.969,3.956l1.489,1.993,1.287,2.132,2.594,4.286c.746,1.495,1.433,3.028,2.158,4.547,1.591,2.988,2.476,6.27,3.653,9.463a40.8,40.8,0,0,1,1.32,4.936l1.189,5s-.22-1.268-.65-3.734q-.331-1.857-.823-4.6c-.436-1.8-1.1-3.858-1.775-6.213a59.425,59.425,0,0,0-2.923-7.671q-.443-1.049-.9-2.143-.574-1.043-1.172-2.128-1.206-2.172-2.511-4.527c-.971-1.508-2.077-3.007-3.176-4.6-.567-.781-1.091-1.621-1.724-2.391q-.978-1.139-1.985-2.314a86.834,86.834,0,0,0-9.241-9.384c-1.8-1.467-3.623-3.024-5.558-4.53q-3-2.12-6.159-4.348l-6.726-4.145Q673.71,380.609,670,378.6c-2.53-1.217-5.092-2.509-7.748-3.73-2.68-1.159-5.385-2.421-8.2-3.552q-8.424-3.455-17.622-6.715c-3.063-1.123-6.191-2.141-9.342-3.236q-4.716-1.668-9.5-3.6a162.011,162.011,0,0,1-19.111-9.216C585.869,341.367,573.522,331.621,564,318.428Z" transform="translate(-563.999 -318.428)"/></g></g><g transform="translate(261.418 360.256)"><g transform="translate(0)"><path class="i" d="M582.881,316.585l-.517,1.8c-.349,1.178-.785,2.921-1.471,5.118-1.275,4.414-3.287,10.687-5.907,18.219s-5.907,16.313-9.429,25.878-7.3,19.919-10.548,30.672c0,0,3.7-7.581,9.579-21.393,2.9-6.923,6.369-15.413,9.733-25.482A199.42,199.42,0,0,0,582.881,316.585Z" transform="translate(-555.008 -316.585)"/></g></g><g transform="translate(274.151 362.166)"><g transform="translate(0)"><path class="i" d="M566.638,340.586l.073-.552a8.66,8.66,0,0,0,.034-1.6,25.091,25.091,0,0,0-1.116-5.53,48.646,48.646,0,0,0-2.994-7.37c-1.294-2.628-2.941-5.293-4.654-8.056a11.864,11.864,0,0,0,.156,1.8,29.467,29.467,0,0,0,1.213,4.9,57.693,57.693,0,0,0,2.975,7.179c.646,1.352,1.4,2.77,2.162,4.277A26.909,26.909,0,0,1,566.638,340.586Z" transform="translate(-557.981 -317.478)"/></g></g><g transform="translate(267.4 368.853)"><g transform="translate(0)"><path class="i" d="M572.41,336.946a45.874,45.874,0,0,0-13.459-16.341S561.594,329.119,572.41,336.946Z" transform="translate(-558.951 -320.605)"/></g></g><g transform="translate(260.148 435.017)"><g transform="translate(0)"><path class="i" d="M547.158,353.621a3.179,3.179,0,0,0-.652-.6,11.645,11.645,0,0,1-2.077-1.478l-.312.582a12.6,12.6,0,0,1,1.754.642,14.19,14.19,0,0,1,1.98,1.136,36.729,36.729,0,0,1,4.412,3.854c1.625,1.6,3.621,3.193,5.627,4.93l6.638,5.577c9.429,7.885,21.044,17.287,32.434,27.828,0,0-.984-1.364-3.02-3.818a133.4,133.4,0,0,0-9.459-10.191,211.14,211.14,0,0,0-16.461-14.4q-5-3.972-10.811-8.247c-1.982-1.377-3.809-2.876-5.86-4.468a15.3,15.3,0,0,0-7.141-3.315l-.453-.056.329.289a5.041,5.041,0,0,0,1.482.845A5.272,5.272,0,0,1,547.158,353.621Z" transform="translate(-543.757 -351.542)"/></g></g><g transform="translate(214.377 434.328)"><g transform="translate(0)"><path class="i" d="M598.84,351.22l.135,1.17c.075.766.263,1.876.385,3.3.064.712.135,1.5.212,2.361.094.858.086,1.792.146,2.785a49.082,49.082,0,0,1-.158,6.645c-.038,1.217-.346,2.447-.5,3.74a35.735,35.735,0,0,1-1.018,3.888c-.233.65-.421,1.326-.689,1.983l-.879,1.963c-.27.676-.706,1.279-1.05,1.94a13.726,13.726,0,0,1-1.2,1.912,35.259,35.259,0,0,1-2.879,3.693c-.515.609-1.123,1.148-1.683,1.739a18.5,18.5,0,0,1-1.8,1.694l-1.9,1.651-2.027,1.557c-1.341,1.08-2.832,1.974-4.254,3.015,0,0,1.234-.453,3.546-1.456.58-.248,1.187-.6,1.876-.96.678-.379,1.45-.749,2.224-1.251l2.479-1.666c.858-.633,1.713-1.39,2.643-2.162.9-.811,1.762-1.764,2.693-2.744a31.047,31.047,0,0,0,2.5-3.45c.376-.644.785-1.285,1.146-1.972q.475-1.065.971-2.169a19.891,19.891,0,0,0,.806-2.327,14.756,14.756,0,0,0,.625-2.464,32.406,32.406,0,0,0,.646-5.265q-.009-1.357-.017-2.759c-.032-.93-.154-1.867-.235-2.814-.064-.95-.267-1.895-.426-2.853a28.359,28.359,0,0,0-.605-2.887C600.11,355.123,599.48,353.188,598.84,351.22Z" transform="translate(-579.68 -351.22)"/></g></g><g transform="translate(202.804 427.63)"><g transform="translate(0)"><path class="i" d="M599.517,348.088l.261.862a15.74,15.74,0,0,1,.659,2.412c.1.526.2,1.108.321,1.741.045.642.092,1.335.143,2.075s-.045,1.531-.051,2.357c-.03.825-.207,1.7-.3,2.6-.156.9-.374,1.835-.578,2.8-.3.952-.509,1.959-.881,2.96a59.132,59.132,0,0,1-2.526,6.277,102.984,102.984,0,0,1-7.609,13.262,26.388,26.388,0,0,0,2.23-1.921,35.046,35.046,0,0,0,2.466-2.569,38.035,38.035,0,0,0,2.973-3.839,38.576,38.576,0,0,0,3.056-5.267c.5-1,.913-2.094,1.369-3.216a33.293,33.293,0,0,0,1.067-3.634,27.386,27.386,0,0,0,.65-4.014,22.616,22.616,0,0,0-.075-4.327,17.966,17.966,0,0,0-1.016-4.416c-.308-.712-.556-1.448-.932-2.134Q600.141,349.11,599.517,348.088Z" transform="translate(-588.959 -348.088)"/></g></g><g transform="translate(358.424 386.386)"><g transform="translate(0)"><path class="i" d="M488.536,328.8s2.045,3.315,5.9,9.021,9.575,13.754,16.7,23.318c3.574,4.765,7.455,9.942,11.585,15.449q3.076,4.129,6.33,8.49l6.57,8.955c2.158,3.095,4.459,6.189,6.636,9.434,2.254,3.2,4.412,6.527,6.645,9.876,2.13,3.4,4.391,6.8,6.446,10.357,2.171,3.5,4.13,7.152,6.213,10.792l-.717-2.2q-.372-1.091-.922-2.7c-.389-1.065-.776-2.333-1.354-3.706-1.14-2.752-2.476-6.211-4.408-10.114-.935-1.968-1.95-4.087-3.157-6.279-1.185-2.207-2.425-4.575-3.886-6.985-2.838-4.874-6.2-10.163-10.122-15.747-1.925-2.825-4.072-5.65-6.262-8.627-2.25-2.921-4.572-5.967-7.072-9.029C513.746,356.749,501.731,343.513,488.536,328.8Z" transform="translate(-488.536 -328.803)"/></g></g><g transform="translate(434.335 496.885)"><g transform="translate(0)"><path class="i" d="M437.743,380.471s.6,1.471,1.724,4.241c1.17,2.752,2.919,6.79,5.351,11.857s5.539,11.164,9.228,18.108,7.947,14.742,12.4,23.35c2.16,4.418,4.737,8.8,7.3,13.422q3.9,6.9,8.078,14.273,4.222,7.337,8.681,15.088,2.252,3.859,4.553,7.808l2.342,3.959,2.592,3.922c6.94,10.379,14.555,20.8,22.116,31.588,7.545,10.792,15.03,21.992,21.382,34.066,0,0-.468-1.193-1.377-3.514-.926-2.316-2.393-5.725-4.5-10.105-1.076-2.177-2.273-4.622-3.7-7.254q-2.1-3.975-4.78-8.572c-3.554-6.129-7.877-13.052-12.84-20.726l-7.853-12.1-4.19-6.5c-1.409-2.194-2.842-4.446-4.168-6.886q-8.2-14.407-18.033-31.023-4.934-8.276-10.195-17.1c-3.33-5.973-7-12.1-10.794-18.3C453.458,407.649,445.2,394.761,437.743,380.471Z" transform="translate(-437.743 -380.471)"/></g></g><g transform="translate(525.796 649.713)"><g transform="translate(0)"><path class="i" d="M435.884,451.931a66.461,66.461,0,0,0,4.968,6.484,92.905,92.905,0,0,0,13.289,12.736,30.012,30.012,0,0,0-3.841-6.219A57.781,57.781,0,0,0,435.884,451.931Z" transform="translate(-435.884 -451.931)"/></g></g><g transform="translate(533.566 663.152)"><g transform="translate(0)"><path class="i" d="M441.922,458.215l.242.627c.139.415.443.967.663,1.747a26.054,26.054,0,0,1,.808,2.755c.165.524.225,1.116.355,1.713s.184,1.247.274,1.91c.116.661.086,1.36.141,2.075.026.714-.03,1.448-.056,2.2a17.428,17.428,0,0,1-.357,2.261,14.046,14.046,0,0,1-.691,2.256,10.825,10.825,0,0,1-1.215,2.083,9.3,9.3,0,0,1-1.743,1.829c-.359.252-.725.507-1.093.763s-.815.4-1.232.622a18.7,18.7,0,0,1-2.731,1s.731.1,2.209.143c.364-.021.766-.1,1.221-.165a5.818,5.818,0,0,0,1.469-.357,10.315,10.315,0,0,0,1.651-.725,10.149,10.149,0,0,0,1.681-1.236,8.926,8.926,0,0,0,1.518-1.788,9.909,9.909,0,0,0,1.176-2.288,13.545,13.545,0,0,0,.682-2.671,15.107,15.107,0,0,0,.126-2.917A18.8,18.8,0,0,0,441.922,458.215Z" transform="translate(-435.288 -458.215)"/></g></g><g transform="translate(475.035 615.903)"><g transform="translate(0)"><path class="i" d="M501.936,510.142l-1.189-1.756c-.789-1.138-1.9-2.846-3.45-4.938-3.022-4.241-7.586-10.163-13.424-17.079s-12.962-14.8-20.783-23.23-16.271-17.488-24.6-27.017c0,0,1.3,1.993,3.9,5.661,2.633,3.646,6.634,8.931,12.1,15.42s12.383,14.175,20.492,22.913C483.077,488.876,492.35,498.7,501.936,510.142Z" transform="translate(-438.489 -436.122)"/></g></g><g transform="translate(383.737 498.673)"><path class="i" d="M563.932,510.188l.227-.928a6.793,6.793,0,0,0-.182-2.778c-.644-2.387-2.669-5.447-5.853-8.657-6.335-6.508-17.043-13.91-30.249-22.184q-2.448-1.572-5-3.21c-.832-.55-1.689-1.131-2.438-1.689l-2.322-2.04c-1.57-1.367-3.163-2.765-4.7-4.3-1.563-1.495-3.165-3-4.679-4.647-1.548-1.61-3.127-3.238-4.615-4.989-1.531-1.715-3.065-3.467-4.521-5.323l-2.246-2.761q-1.075-1.431-2.16-2.881c-1.478-1.91-2.868-3.916-4.262-5.952-2.814-4.051-5.447-8.343-8.024-12.759-1.266-2.22-2.481-4.5-3.721-6.775-1.146-2.329-2.391-4.632-3.492-7.021-2.233-4.763-4.414-9.632-6.322-14.658-1.991-5-3.719-10.139-5.4-15.33l.719,2.928q.366,1.453.9,3.6.616,2.127,1.424,4.925c.513,1.873,1.247,3.916,1.987,6.193.716,2.288,1.7,4.711,2.675,7.376,1.05,2.631,2.192,5.464,3.537,8.435q1.027,2.22,2.119,4.583,1.177,2.323,2.425,4.782c.808,1.653,1.777,3.276,2.714,4.975s1.948,3.413,3.033,5.141c1.059,1.743,2.158,3.518,3.379,5.274,1.193,1.773,2.4,3.6,3.751,5.376,1.328,1.8,2.661,3.649,4.153,5.434,1.456,1.818,2.943,3.67,4.577,5.456q1.206,1.36,2.432,2.742l2.59,2.686c1.719,1.833,3.578,3.586,5.486,5.351,1.856,1.814,3.942,3.477,5.98,5.235a52.506,52.506,0,0,0,6.859,4.587c4.716,2.838,9.588,5.691,14.5,8.775A165.328,165.328,0,0,1,553.9,495.305a52.513,52.513,0,0,1,6.779,6.294,19.886,19.886,0,0,1,2.646,3.892A6.651,6.651,0,0,1,563.932,510.188Z" transform="translate(-463.962 -381.307)"/></g><g transform="translate(335.616 468.796)"><g transform="translate(0)"><path class="i" d="M562.546,405.843l-.614-1.354-.757-1.636a14.54,14.54,0,0,0-1.193-2.139c-.5-.772-1-1.675-1.651-2.577l-2.237-2.853c-.851-.973-1.826-1.953-2.832-3.015-1.041-1.024-2.218-2.01-3.418-3.086-1.253-1-2.579-2.025-3.98-3.05-1.444-.954-2.9-2.025-4.491-2.956-3.139-1.955-6.589-3.785-10.223-5.569-7.28-3.565-15.368-6.67-23.448-10.272,0,0,1.343.984,4.021,2.656s6.728,3.935,11.966,6.681l8.666,4.557c1.583.821,3.18,1.752,4.88,2.66,1.638.995,3.418,1.918,5.133,3.048,1.769,1.059,3.522,2.252,5.323,3.5.92.6,1.754,1.33,2.663,2A30.162,30.162,0,0,1,553,394.628a49.835,49.835,0,0,1,5.088,5.045c.757.965,1.589,1.908,2.34,2.93Q561.472,404.2,562.546,405.843Z" transform="translate(-507.703 -367.337)"/></g></g><g transform="translate(319.185 446.709)"><g transform="translate(0)"><path class="i" d="M587.571,357.009s-.541.468-1.583,1.307a39.215,39.215,0,0,1-4.842,3.191,74.593,74.593,0,0,1-8.2,3.873l-5.238,2.136c-1.854.742-3.811,1.657-5.8,2.543-7.988,3.586-17.494,7.577-27.954,11.482s-21.915,7.695-33.8,11c0,0,2.3-.263,6.619-1.05a183.841,183.841,0,0,0,18.6-4.438,219.225,219.225,0,0,0,28.168-10.484c2.663-1.2,5.387-2.485,8.18-3.875,2.814-1.4,5.565-2.864,8.557-4.26,2.96-1.422,6.02-2.921,9.006-4.733A36.79,36.79,0,0,0,587.571,357.009Z" transform="translate(-500.156 -357.009)"/></g></g><g transform="translate(368.174 484.396)"><g transform="translate(0)"><path class="i" d="M491.169,374.631l1.394.962c.9.639,2.278,1.495,3.935,2.742,1.692,1.191,3.693,2.714,5.98,4.489,2.267,1.8,4.8,3.873,7.519,6.208,2.705,2.355,5.614,4.951,8.64,7.789s6.187,5.894,9.463,9.1c6.529,6.433,13.456,13.525,20.713,20.593,0,0-1.106-1.553-3.308-4.395s-5.507-6.976-10.011-12.053a187.9,187.9,0,0,0-17.475-17.391c-1.8-1.585-3.732-3.148-5.734-4.739-2.034-1.555-4.121-3.165-6.373-4.679-2.213-1.561-4.579-3.041-7.025-4.5-1.243-.7-2.485-1.435-3.77-2.124Q493.17,375.643,491.169,374.631Z" transform="translate(-491.169 -374.631)"/></g></g><g transform="translate(421.097 526.58)"><g transform="translate(0)"><path class="i" d="M508.743,397.273a2.843,2.843,0,0,0,.507-.595,3.946,3.946,0,0,0,.547-2.32l-.25.006c-.011.995-.026,2.252-.045,3.741-.16,1.482-.158,3.214-.5,5.113-.165.95-.242,1.965-.494,3s-.447,2.122-.738,3.234q-.5,1.652-1.037,3.422c-.453,1.146-.864,2.35-1.384,3.548-.586,1.168-1.074,2.425-1.773,3.606a37.343,37.343,0,0,1-2.2,3.589l-1.234,1.786q-.7.84-1.414,1.7a39.277,39.277,0,0,1-3.105,3.291c-1.144,1.012-2.325,2.034-3.6,2.953a34.539,34.539,0,0,1-4.038,2.528,32.689,32.689,0,0,1-4.4,2.068c-1.5.665-3.116,1.018-4.686,1.557,0,0,1.4-.3,4.046-.99l2.156-.774a16.405,16.405,0,0,0,2.549-1.076,27.691,27.691,0,0,0,2.862-1.5c.958-.642,2.062-1.21,3.073-2.03a32.6,32.6,0,0,0,3.161-2.641q.776-.754,1.593-1.546c.528-.543,1.005-1.155,1.525-1.752a39.858,39.858,0,0,0,2.949-3.969c.473-.716.875-1.493,1.324-2.26a18.981,18.981,0,0,0,1.24-2.412,45.077,45.077,0,0,0,2.126-5.289,48.633,48.633,0,0,0,1.474-5.868,26.921,26.921,0,0,0,.485-3.114c.1-1.061.293-2.126.3-3.221.028-1.091.109-2.194.092-3.311q-.064-1.671-.13-3.388l-.1,0a5.481,5.481,0,0,1-.092,1.5A3.114,3.114,0,0,1,508.743,397.273Z" transform="translate(-478.903 -394.356)"/></g></g><g transform="translate(440.321 561.19)"><g transform="translate(0)"><path class="i" d="M500.7,410.539l-.038,1.059c-.013.344-.028.77-.043,1.27a12.914,12.914,0,0,1-.113,1.717l-.282,2.119a23.338,23.338,0,0,1-.545,2.459,17.519,17.519,0,0,1-.877,2.725,19.906,19.906,0,0,1-1.32,2.889,22.544,22.544,0,0,1-4.279,5.74l-1.4,1.36-1.559,1.268a36.215,36.215,0,0,1-3.435,2.359,41.8,41.8,0,0,1-3.828,2.064c-1.313.68-2.725,1.21-4.125,1.8-1.431.526-2.872,1.076-4.365,1.523-1.474.507-3,.881-4.519,1.326l3.373-.654c1.084-.287,2.455-.556,4.019-1.059A51.753,51.753,0,0,0,482.7,438.6c.962-.46,2.015-.873,3.05-1.452a32.086,32.086,0,0,0,3.2-1.9,30.253,30.253,0,0,0,3.246-2.449c.556-.436,1.027-.988,1.557-1.493a12.681,12.681,0,0,0,1.495-1.664,26.461,26.461,0,0,0,2.648-3.877q.51-1.1,1.039-2.231c.338-.757.539-1.583.817-2.387a16.517,16.517,0,0,0,.588-2.517l.246-1.294.1-1.328A35.292,35.292,0,0,0,500.7,410.539Z" transform="translate(-469.971 -410.539)"/></g></g><g transform="translate(537.304 601.437)"><g transform="translate(0)"><path class="i" d="M451.886,429.358s-.436.051-1.277.212a10.022,10.022,0,0,0-1.467.563,10.218,10.218,0,0,0-1.82,1.125c-2.588,1.933-5.385,5.663-7.827,10.531a101.456,101.456,0,0,0-6.578,17.464c-.954,3.3-1.826,6.758-2.643,10.308-.84,3.546-1.527,7.205-2.515,10.824a30.488,30.488,0,0,0,1.762-3.706c1.046-2.474,2.408-6.179,4.01-10.939,1.621-4.754,3.441-10.584,5.8-17.195a94.766,94.766,0,0,1,4.29-10.31,30.455,30.455,0,0,1,3.167-5.139A10.263,10.263,0,0,1,451.886,429.358Z" transform="translate(-427.758 -429.358)"/></g></g><g transform="translate(561.34 601.617)"><g transform="translate(0)"><path class="i" d="M422.377,429.442l.545,1.478q.269.722.665,1.769c.289.682.494,1.523.793,2.432.269.922.646,1.912.907,3.045q.433,1.684.932,3.634.427,1.97.9,4.185.4,2.23.845,4.688c.235,1.651.552,3.356.776,5.146s.507,3.638.712,5.556c.481,3.824.862,7.9,1.3,12.141.84,8.488,1.655,17.7,3.137,27.015,0,0,.062-1.775.073-5.118s.021-8.255-.2-14.556a189.931,189.931,0,0,0-2.077-22.83c-.357-2.207-.763-4.48-1.283-6.809-.5-2.331-1.108-4.716-1.833-7.137-.7-2.43-1.593-4.874-2.573-7.344q-.818-1.816-1.66-3.678Q423.373,431.275,422.377,429.442Z" transform="translate(-422.377 -429.442)"/></g></g><g transform="translate(552.683 666.826)"><g transform="translate(0)"><path class="i" d="M442.62,459.933s-.9.415-2.429,1.3a39.1,39.1,0,0,0-5.978,4.309,38.3,38.3,0,0,0-6.978,8.014,35.082,35.082,0,0,0-4.846,11.429s.494-.663,1.337-1.916,2.089-3.069,3.7-5.325A135.27,135.27,0,0,1,442.62,459.933Z" transform="translate(-422.389 -459.933)"/></g></g><g transform="translate(536.566 687.096)"><g transform="translate(0)"><path class="i" d="M449.768,469.411l-.239,1.189a32.046,32.046,0,0,0-.349,3.42c-.19,2.956.009,7.218-.113,12.212a35.731,35.731,0,0,1-.308,3.822,12.759,12.759,0,0,1-1,3.653l-.479.607a8.436,8.436,0,0,1-.65.6,3.139,3.139,0,0,1-1.426.659,5.162,5.162,0,0,1-3.473-1.131,33.435,33.435,0,0,1-6.694-6.931c-2.1-2.693-4.08-5.62-6.185-8.535,0,0,.492,1.262,1.544,3.587a53.212,53.212,0,0,0,5.6,9.684,25.026,25.026,0,0,0,2.6,2.971,12.127,12.127,0,0,0,3.8,2.624,5.687,5.687,0,0,0,5.573-.518,8.181,8.181,0,0,0,2.019-2.079,10.4,10.4,0,0,0,.977-2.78,36.511,36.511,0,0,0-.043-11.076q-.359-2.823-.744-5.826A41.164,41.164,0,0,1,449.768,469.411Z" transform="translate(-428.85 -469.411)"/></g></g><g transform="translate(533.463 683.326)"><g transform="translate(0)"><path class="i" d="M438.4,467.648s.483,2.556,1.127,5.947a57.449,57.449,0,0,0,3.668,13.242,20.438,20.438,0,0,0,.379-5.53,25.006,25.006,0,0,0-1.1-6.258A20.062,20.062,0,0,0,438.4,467.648Z" transform="translate(-438.404 -467.648)"/></g></g><g transform="translate(564.334 611.286)"><g transform="translate(0)"><path class="i" d="M425.233,433.963a7.425,7.425,0,0,1,.982,1.418,15.11,15.11,0,0,1,.761,1.651l.205.507a4.758,4.758,0,0,1,.175.462.068.068,0,0,1-.075.041l-.009,0,.006.009,0,.009-.173.092-1.422.763a35.321,35.321,0,0,1-3.283,1.542,4.646,4.646,0,0,0,1.965.669,6.9,6.9,0,0,0,2.449-.1,9.028,9.028,0,0,0,1.45-.445l.558-.244.7-.34c.462-.237.935-.481,1.424-.731-.426-.8-.877-1.621-1.364-2.406a7.756,7.756,0,0,0-.5-.654,8.171,8.171,0,0,0-.577-.622A5.3,5.3,0,0,0,425.233,433.963Z" transform="translate(-422.404 -433.963)"/></g></g><g transform="translate(570.192 628.479)"><g transform="translate(0)"><path class="i" d="M420.915,444.012a3.436,3.436,0,0,1,.945-.22,3.166,3.166,0,0,1,.954.071c.225.034.186.1.265.148.056.034.043.145.032.207-.062-.021.077.28.184.533l.319.766c.207.515.413,1.035.558,1.536a4.275,4.275,0,0,1,.2,1.54,4.48,4.48,0,0,1-.736,1.957,2.546,2.546,0,0,0,.96-.16,2.983,2.983,0,0,0,1.059-.62,3.393,3.393,0,0,0,.958-1.518,5.313,5.313,0,0,0-.84-4.354,13.1,13.1,0,0,0-.813-1.067l-.659-.77c-.267-.145-.7.045-1.016.064l-.5.115c-.118.043-.235.088-.353.143a3.159,3.159,0,0,0-.667.408A2.706,2.706,0,0,0,420.915,444.012Z" transform="translate(-420.915 -442.003)"/></g></g><g transform="translate(571.079 648.78)"><g transform="translate(0)"><path class="i" d="M422.751,451.5s.387.368,1,.954a9.949,9.949,0,0,1,.939,1.138,3.319,3.319,0,0,1,.432.71,2.671,2.671,0,0,1,.306.776,2.623,2.623,0,0,1,.107.781,2.4,2.4,0,0,1-.148.727,2.356,2.356,0,0,1-.419.7,3.934,3.934,0,0,1-.714.686,9.336,9.336,0,0,1-2.282,1.127c-.447.169-.935.269-1.431.443l-1.572.372a7.591,7.591,0,0,0,1.127.543,6.641,6.641,0,0,0,1.467.385,4.176,4.176,0,0,0,.98.079,5.207,5.207,0,0,0,1.144-.073,5.442,5.442,0,0,0,1.285-.342,4.786,4.786,0,0,0,1.354-.757,4.416,4.416,0,0,0,1.206-1.341,4.353,4.353,0,0,0,.584-1.953,4.5,4.5,0,0,0-.46-2.051c-.18-.293-.364-.586-.567-.86-.233-.24-.477-.473-.721-.7a6.043,6.043,0,0,0-1.719-.928A7.771,7.771,0,0,0,422.751,451.5Z" transform="translate(-418.97 -451.495)"/></g></g><g transform="translate(569.216 663.171)"><g transform="translate(0)"><path class="i" d="M424.233,458.224l.15.357a6.707,6.707,0,0,1,.378.969,11.36,11.36,0,0,1,.4,1.521c.081.282.094.616.158.941s.079.678.118,1.037.041.736.06,1.118c.039.385-.026.768-.017,1.166a10.357,10.357,0,0,1-.152,1.146l-.124.541a3.152,3.152,0,0,0-.182.451,1.912,1.912,0,0,1-.47.6,1.7,1.7,0,0,1-.965.235,6.147,6.147,0,0,1-1.433-.173l-1.6-.485a8.068,8.068,0,0,0,.761,1.061,5.2,5.2,0,0,0,1.232,1.067,3.48,3.48,0,0,0,1.041.453,3.078,3.078,0,0,0,3.054-.689,4.238,4.238,0,0,0,1.059-1.488,6.159,6.159,0,0,0,.423-1.692,7.2,7.2,0,0,0,0-1.756,9.206,9.206,0,0,0-1.133-3.516,7.807,7.807,0,0,0-1.159-1.61A6.476,6.476,0,0,0,424.233,458.224Z" transform="translate(-420.553 -458.224)"/></g></g><g transform="translate(554.723 688.497)"><g transform="translate(0)"><path class="i" d="M429.8,470.731s.447.212,1.178.485c.481.248.5.669.156.761-.126.032-.16.015-.16.015l.007,0c.043-.021-.062.051-.175.133l-.633.434a24.409,24.409,0,0,1-3.257,1.762,4.2,4.2,0,0,0,.5.3,4.892,4.892,0,0,0,1.561.453,5.354,5.354,0,0,0,2.6-.349,5.92,5.92,0,0,0,.729-.346,10.171,10.171,0,0,0,1.114-.774,17.536,17.536,0,0,0,2-2.034,10.939,10.939,0,0,0-1.24-.926,3.621,3.621,0,0,0-1.531-.554,4.43,4.43,0,0,0-1.666.145A11.817,11.817,0,0,0,429.8,470.731Z" transform="translate(-426.916 -470.066)"/></g></g><g transform="translate(561.363 700.661)"><g transform="translate(0)"><path class="i" d="M425.927,475.754l.278.9c.169.554.389,1.309.59,2.149a13.781,13.781,0,0,1,.415,2.616,5.712,5.712,0,0,1-.006.635,3.494,3.494,0,0,1-.139.65,3.9,3.9,0,0,1-1.08,1.493,2.48,2.48,0,0,0,1.983-.021,2.832,2.832,0,0,0,1.275-1.052,3.74,3.74,0,0,0,.657-1.935,4.9,4.9,0,0,0-.376-2.188A5.829,5.829,0,0,0,425.927,475.754Z" transform="translate(-425.927 -475.754)"/></g></g><g transform="translate(543.138 638.115)"><g transform="translate(0)"><path class="i" d="M438.263,446.508s.154,1.448.423,3.959.74,6.123,1.076,10.46c.163,2.169.287,4.519.3,7-.047,1.236.006,2.521-.135,3.809-.053.644-.079,1.3-.152,1.961q-.144.978-.291,1.976a15.044,15.044,0,0,1-.413,1.983,13.468,13.468,0,0,1-.543,1.978q-.35.972-.708,1.959-.481.924-.973,1.865a13.156,13.156,0,0,1-1.2,1.76c-.22.284-.408.6-.654.868l-.787.759a20.29,20.29,0,0,1-3.555,2.778l.8-.282.994-.37a7.884,7.884,0,0,0,1.356-.6c.477-.31,1.009-.652,1.593-1.026a9.39,9.39,0,0,0,1.741-1.508q.446-.449.928-.928l.808-1.144q.414-.6.853-1.242l.691-1.427a16.837,16.837,0,0,0,1.21-3.21,26,26,0,0,0,.8-3.666c.169-1.285.289-2.635.336-4.029,0-1.392.026-2.842-.118-4.32A77.528,77.528,0,0,0,438.263,446.508Z" transform="translate(-430.645 -446.508)"/></g></g><g transform="translate(540.249 634.684)"><g transform="translate(0)"><path class="i" d="M443.9,449.224l-.024-.31a4.07,4.07,0,0,0-.864-2.228,4.687,4.687,0,0,0-1.625-1.277,6.814,6.814,0,0,0-4.829-.126,9.8,9.8,0,0,0-4.365,2.915,8.075,8.075,0,0,0,1.037.028,24.9,24.9,0,0,0,2.663-.212c1.086-.13,2.331-.346,3.64-.447a9.044,9.044,0,0,1,.992,0,4.31,4.31,0,0,1,1.048.175,3.771,3.771,0,0,1,1.14.515A7.505,7.505,0,0,1,443.9,449.224Z" transform="translate(-432.189 -444.904)"/></g></g><g transform="translate(107.897 335.249)"><g transform="translate(0)"><path class="i" d="M641.13,304.892a9.988,9.988,0,0,0-.806,1.39,16.1,16.1,0,0,0-1.341,4.042,26.47,26.47,0,0,0-.441,5.95,69.123,69.123,0,0,0,.659,6.9,8.68,8.68,0,0,0,.65-1.219,15.91,15.91,0,0,0,1.067-3.674,30.917,30.917,0,0,0,.381-5.772C641.281,310.284,641.066,307.841,641.13,304.892Z" transform="translate(-638.528 -304.892)"/></g></g><g transform="translate(64.467 334.625)"><g transform="translate(0)"><path class="i" d="M686.277,310.928l-.877-.656-1.078-.789a11.556,11.556,0,0,0-1.559-.917,17.024,17.024,0,0,0-2.027-1.009c-.766-.3-1.6-.648-2.5-.962l-2.947-.821c-1.054-.2-2.169-.432-3.341-.625a58.464,58.464,0,0,0-7.633-.541,80.31,80.31,0,0,0-8.557.406c-5.939.56-12.195,1.8-18.585,3.011,0,0,1.225.122,3.548.163s5.729-.045,10.058-.269c4.327-.193,9.573-.622,15.591-.633,1.508-.015,3.06.015,4.66.1s3.247.2,4.921.449a41.12,41.12,0,0,1,5.137,1.031q1.283.427,2.607.868Z" transform="translate(-637.172 -304.6)"/></g></g><g transform="translate(26.97 336.851)"><g transform="translate(0)"><path class="i" d="M702.235,309.721l-1.007-.073c-.657-.047-1.615-.086-2.838-.233-2.442-.229-5.913-.734-10.124-1.439-4.213-.684-9.181-1.561-14.68-2.042a74.7,74.7,0,0,0-8.58-.265c-1.476.092-2.964.15-4.457.372a44.32,44.32,0,0,0-4.461.8s1.155.083,3.283.186c1.067.1,2.374.143,3.909.323,1.536.13,3.3.346,5.274.584,3.954.481,8.76,1.217,14.406,1.844,2.823.308,5.862.569,9.1.648,1.617.045,3.285.011,4.987-.073A46.393,46.393,0,0,0,702.235,309.721Z" transform="translate(-656.088 -305.641)"/></g></g><g transform="translate(0 337.859)"><g transform="translate(0)"><path class="i" d="M711.3,306.3l-.954-.077a21.938,21.938,0,0,0-2.733-.094,31.838,31.838,0,0,0-4.286.346,42.585,42.585,0,0,0-5.483,1.255,49.767,49.767,0,0,0-6.245,2.421,63.647,63.647,0,0,0-6.6,3.571,105.4,105.4,0,0,0-13.18,9.9s1-.415,2.819-1.313,4.444-2.29,7.744-4.123c3.311-1.805,7.263-4.11,11.985-6.388,1.176-.582,2.412-1.131,3.693-1.689,1.292-.522,2.62-1.1,4.029-1.559,1.4-.515,2.87-.928,4.4-1.33.77-.165,1.55-.37,2.352-.524Z" transform="translate(-671.816 -306.112)"/></g></g><g transform="translate(76.85 362.446)"><g transform="translate(0)"><path class="i" d="M676.457,328.807a31.462,31.462,0,0,0-3.49-3.052,46.694,46.694,0,0,0-4.446-3.03,43.714,43.714,0,0,0-6.332-3.165,30.109,30.109,0,0,0-3.929-1.279,21.207,21.207,0,0,0-4.493-.672,14.642,14.642,0,0,0-2.464.135l-1.155.205-1.273.274a13.03,13.03,0,0,0-4.643,2.521,25.409,25.409,0,0,0-6.159,8.48,37.889,37.889,0,0,0-3.152,10.223s.5-1.27,1.587-3.552c.528-1.146,1.266-2.519,2.156-4.1a43.568,43.568,0,0,1,3.454-5.143,25.527,25.527,0,0,1,2.4-2.665,14.168,14.168,0,0,1,3.03-2.265,9.866,9.866,0,0,1,1.76-.776c.312-.1.65-.145.977-.222l.609-.122.5-.088a13.919,13.919,0,0,1,4.433-.051,40.2,40.2,0,0,1,10.013,2.827A61.639,61.639,0,0,1,676.457,328.807Z" transform="translate(-634.921 -317.609)"/></g></g><g transform="translate(44.31 358.841)"><g transform="translate(0)"><path class="i" d="M691.5,325.093l.079-.244a2.632,2.632,0,0,0,.175-.751l-.006-.592a6.845,6.845,0,0,0-.208-.689,4.357,4.357,0,0,0-1.039-1.405,12.522,12.522,0,0,0-3.916-2.248,36.036,36.036,0,0,0-5.522-1.593,83.445,83.445,0,0,0-14.267-1.58c-2.641-.09-5.383-.088-8.187-.011-2.8.053-5.669.3-8.542.3a20.4,20.4,0,0,0,3.077.74c2.038.381,5.047.8,8.89,1.181s8.524.719,13.9,1.157c2.682.237,5.55.475,8.522.98a21.538,21.538,0,0,1,4.455,1.161,5.69,5.69,0,0,1,1.955,1.266A2.646,2.646,0,0,1,691.5,325.093Z" transform="translate(-650.066 -315.923)"/></g></g><g transform="translate(41.016 357.76)"><g transform="translate(0)"><path class="i" d="M677.49,317.843l-.28-.342a9.3,9.3,0,0,0-.9-.95l-.815-.539a3.575,3.575,0,0,0-1.119-.443,3.672,3.672,0,0,0-1.429-.145,5.011,5.011,0,0,0-1.587.334,7.5,7.5,0,0,0-2.789,2.03,8.8,8.8,0,0,0-1.084,1.446,12.875,12.875,0,0,0-.868,1.632,12.61,12.61,0,0,0-.875,7.648s.2-.494.586-1.328c.364-.836.964-2.019,1.717-3.454.372-.719.806-1.5,1.3-2.305.224-.426.526-.8.789-1.232a14.646,14.646,0,0,1,.928-1.193c.169-.188.344-.379.522-.573l.584-.494a4.3,4.3,0,0,1,1.394-.693,2.433,2.433,0,0,1,.855-.126,2.527,2.527,0,0,1,.956.068A9.126,9.126,0,0,1,677.49,317.843Z" transform="translate(-665.485 -315.418)"/></g></g><g transform="translate(94.162 328.606)"><g transform="translate(0)"><path class="i" d="M651.972,308.446a14.566,14.566,0,0,0,.062-1.469,7.818,7.818,0,0,0-.218-1.732,4.473,4.473,0,0,0-.381-1.087,3.518,3.518,0,0,0-.761-1.181,3.6,3.6,0,0,0-1.441-.994,9.068,9.068,0,0,0-.971-.192,5.32,5.32,0,0,0-.954.075,4.942,4.942,0,0,0-1.674.637,7.057,7.057,0,0,0-1.356,1.016,10.754,10.754,0,0,0-3.116,5.856s.372-.28.988-.785c.659-.537,1.542-1.26,2.554-2.085.524-.436,1.116-.868,1.728-1.287a6.871,6.871,0,0,1,.932-.518,3.109,3.109,0,0,1,.851-.276,1.661,1.661,0,0,1,.8.139,4.711,4.711,0,0,0,.492.323l.494.526a13.948,13.948,0,0,1,1.005,1.362Q651.458,307.559,651.972,308.446Z" transform="translate(-641.162 -301.786)"/></g></g><g transform="translate(80.576 329.957)"><g transform="translate(0)"><path class="i" d="M657.9,307.686a7.177,7.177,0,0,0-.319-1.172,6.879,6.879,0,0,0-1.908-2.7,5.8,5.8,0,0,0-2.107-1.168,4.878,4.878,0,0,0-1.4-.227,4.4,4.4,0,0,0-1.548.25,3.993,3.993,0,0,0-1.4.868,3.707,3.707,0,0,0-.913,1.307,4.121,4.121,0,0,0-.344,1.461,5.835,5.835,0,0,0,.1,1.424s.287-.3.674-.793c.216-.237.475-.518.763-.791a4.329,4.329,0,0,1,1.007-.693,3.653,3.653,0,0,1,1.183-.293,4.856,4.856,0,0,1,.731.03,7.578,7.578,0,0,1,.866.143A13.962,13.962,0,0,1,657.9,307.686Z" transform="translate(-647.943 -302.418)"/></g></g><g transform="translate(47.001 332.982)"><g transform="translate(0)"><path class="i" d="M673.719,312.9a16.1,16.1,0,0,0,.605-1.548,7.408,7.408,0,0,0,.147-2,4.986,4.986,0,0,0-.233-1.279,5.289,5.289,0,0,0-.618-1.356,6.084,6.084,0,0,0-2.551-2.278,6.357,6.357,0,0,0-1.822-.537,6.152,6.152,0,0,0-2,.03,5.586,5.586,0,0,0-1.942.757,5.211,5.211,0,0,0-1.548,1.433,5.016,5.016,0,0,0-.793,1.9,6.114,6.114,0,0,0-.069,1.948s.317-.441.744-1.157a8.812,8.812,0,0,1,1.009-1.08,5.076,5.076,0,0,1,.686-.5,4.781,4.781,0,0,1,.823-.387,5.3,5.3,0,0,1,2.013-.3,5.841,5.841,0,0,1,1.151.175,5.514,5.514,0,0,1,1.189.434,5.033,5.033,0,0,1,1.129.787,5.563,5.563,0,0,1,1.009,1.191,6.933,6.933,0,0,1,.695,1.683A11.338,11.338,0,0,1,673.719,312.9Z" transform="translate(-662.851 -303.832)"/></g></g><g transform="translate(32.545 331.398)"><g transform="translate(0)"><path class="i" d="M681.356,309.849l.028-.4a5.832,5.832,0,0,0-.028-1.161c-.053-.257-.113-.537-.178-.838a5.464,5.464,0,0,0-.385-.956,5.916,5.916,0,0,0-1.6-1.987,7.3,7.3,0,0,0-1.273-.815,7.077,7.077,0,0,0-1.565-.492,6.028,6.028,0,0,0-3.565.4,5.526,5.526,0,0,0-1.615,1.071,5.648,5.648,0,0,0-1.642,3.375,7.811,7.811,0,0,0,.041,1.805s.3-.406.708-1.084a4.418,4.418,0,0,1,.4-.524c.156-.18.289-.389.47-.58l.6-.562c.218-.18.481-.323.708-.5a5.986,5.986,0,0,1,2.842-.764,5.9,5.9,0,0,1,1.181.12,5.835,5.835,0,0,1,2.564,1.089,3.593,3.593,0,0,1,.631.52,3.292,3.292,0,0,1,.605.635A8.9,8.9,0,0,1,681.356,309.849Z" transform="translate(-669.489 -303.091)"/></g></g><g transform="translate(21.097 335.811)"><g transform="translate(0)"><path class="i" d="M685.635,308.378a6.357,6.357,0,0,0-.607-.9,6.542,6.542,0,0,0-2.321-1.82,5.327,5.327,0,0,0-2.115-.5,4.8,4.8,0,0,0-1.27.154,4.273,4.273,0,0,0-1.247.528,5,5,0,0,0-2.243,4.517,8.109,8.109,0,0,0,.774-.558,16.3,16.3,0,0,1,1.848-1.251A5.805,5.805,0,0,1,681,307.83,17.941,17.941,0,0,1,685.635,308.378Z" transform="translate(-675.826 -305.155)"/></g></g><g transform="translate(7.664 341.65)"><g transform="translate(0)"><path class="i" d="M690.386,311.08a2.743,2.743,0,0,0-.7-1.627,4.015,4.015,0,0,0-1.8-1.144,7.224,7.224,0,0,0-1.187-.289c-.188-.032-.659-.062-1.007-.083l-1.193-.051c-.18.5-.37,1.035-.537,1.576l-.13.411-.064.242-.113.477a9.475,9.475,0,0,0-.205,2.057,11.474,11.474,0,0,0,.932,4.256,10.46,10.46,0,0,0,.9-2.044c.227-.65.449-1.426.682-2.286.116-.441.233-.892.357-1.375l.094-.372.045-.19c.006-.038,0-.017,0-.03l-.041-.083a.123.123,0,0,1,.015-.073.162.162,0,0,1,.038-.045c-.013-.017.088-.03.2-.043.4-.056.789-.109,1.183-.131A3.193,3.193,0,0,1,690.386,311.08Z" transform="translate(-683.45 -307.885)"/></g></g><g transform="translate(285.458 334.462)"><g transform="translate(0)"><path class="i" d="M574.789,305.23l-1.016-.338a9.48,9.48,0,0,0-1.275-.267,11.435,11.435,0,0,0-1.781-.1,13.108,13.108,0,0,0-2.216.274,14.874,14.874,0,0,0-2.524.77,18.357,18.357,0,0,0-2.7,1.3,25.182,25.182,0,0,0-2.774,1.816c-7.462,5.526-14.656,15.783-19.5,27.364,0,0,.74-.962,2.087-2.708,1.349-1.807,3.306-4.423,5.774-7.723,2.513-3.3,5.535-7.346,9.44-11.585a42.134,42.134,0,0,1,6.807-6.093C567.73,306.154,571.017,304.625,574.789,305.23Z" transform="translate(-541.001 -304.524)"/></g></g><g transform="translate(279.678 338.093)"><g transform="translate(0)"><path class="i" d="M568.217,306.222l-.654.652c-.417.436-1.069,1.05-1.794,1.923a47.377,47.377,0,0,0-5.492,7.759,63.7,63.7,0,0,0-5.4,12.526,74.291,74.291,0,0,0-3.024,15.644s.423-.96,1.112-2.787c.687-1.865,1.675-4.551,2.917-7.924,1.251-3.411,2.725-7.562,4.656-12.265A106.19,106.19,0,0,1,568.217,306.222Z" transform="translate(-551.85 -306.222)"/></g></g><g transform="translate(259.495 371.788)"><g transform="translate(0.118 0.03)"><path d="M584.238,321.991c-6.728,25.955-20.187,51.909-28.837,77.864" transform="translate(-555.401 -321.991)"/></g><g transform="translate(0)"><path class="i" d="M584.292,321.977s-.205.592-.59,1.707-.9,2.763-1.67,4.835c-1.452,4.172-3.7,10.088-6.574,17.2s-6.379,15.424-9.983,24.554a268.94,268.94,0,0,0-10.018,29.556s3.287-7.5,9.034-20.617c2.862-6.611,6.375-14.673,10.007-24.2A200.315,200.315,0,0,0,584.292,321.977Z" transform="translate(-555.457 -321.977)"/></g></g><g transform="translate(255.652 433.306)"><g transform="translate(0.116 0.034)"><path d="M575.8,350.758a270.535,270.535,0,0,1-9.613,29.8" transform="translate(-566.188 -350.758)"/></g><g transform="translate(0)"><path class="i" d="M575.852,350.742s-1.647,3.465-3.61,8.914a162.129,162.129,0,0,0-6,20.873,38.4,38.4,0,0,0,4.162-7.524A71.6,71.6,0,0,0,575.852,350.742Z" transform="translate(-566.245 -350.742)"/></g></g><g transform="translate(157.098 144.382)"><g transform="translate(0)"><path class="i" d="M603.547,218.928l-.308-.462a1.978,1.978,0,0,1-.274-.524,3.459,3.459,0,0,1,.083-.759l-1.262.165c.122.808.252,1.891.533,3.176q.276.943.594,2.042a20.149,20.149,0,0,0,.86,2.282,21.655,21.655,0,0,0,1.148,2.47c.445.84.894,1.745,1.456,2.6s1.1,1.807,1.758,2.686,1.3,1.841,2.045,2.731a84.468,84.468,0,0,0,10.6,10.873c2.034,1.773,4.17,3.518,6.382,5.257l6.775,5.287a28.878,28.878,0,0,0-1.681-3.287,63.189,63.189,0,0,0-6.048-8.443c-2.832-3.443-6.538-7.336-10.783-11.728q-1.569-1.655-3.249-3.426c-1.131-1.172-2.214-2.427-3.343-3.721q-.821-.991-1.668-2.01-.8-1.055-1.627-2.147-.754-1.142-1.529-2.323-.687-1.254-1.392-2.541l-.811-1.482.385,1.538a2.106,2.106,0,0,0,.4,1.052A6.684,6.684,0,0,0,603.547,218.928Z" transform="translate(-601.787 -215.645)"/></g></g><g transform="translate(229.936 466.91)"><g transform="translate(0)"><path class="i" d="M568.291,366.455l-.143.205a2.438,2.438,0,0,0-.372.646,3.009,3.009,0,0,0-.218,1.215,4.962,4.962,0,0,0,.3,1.632c.8,2.359,3.011,5.079,6.018,7.8a68.471,68.471,0,0,0,11.3,8.108c2.216,1.292,4.577,2.532,7.057,3.666a44.958,44.958,0,0,0,7.84,2.876s-.935-.528-2.592-1.621l-7.2-4.724c-3.1-2.042-6.906-4.476-11.2-7.4-2.137-1.473-4.423-3.048-6.651-4.919a21.948,21.948,0,0,1-3.157-3.133C568.393,369.654,567.469,368.1,568.291,366.455Z" transform="translate(-567.556 -366.455)"/></g></g><g transform="translate(449.07 562.06)"><g transform="translate(0)"><path class="i" d="M491.806,448.539l.175-.975a18.954,18.954,0,0,0,.366-2.821c.019-.622.038-1.309.062-2.057-.041-.746-.13-1.557-.212-2.432a25.249,25.249,0,0,0-.533-2.748,30.478,30.478,0,0,0-.939-2.977,32.291,32.291,0,0,0-3.279-6.223,35.845,35.845,0,0,0-2.278-3.095c-.8-1.039-1.719-2.01-2.63-3.02a114.712,114.712,0,0,0-12.879-11.245s.633.924,1.94,2.573,3.319,3.991,5.911,6.914c1.283,1.471,2.731,3.075,4.209,4.883.77.885,1.491,1.856,2.278,2.84.731,1.016,1.54,2.042,2.248,3.178a41.412,41.412,0,0,1,2.122,3.565,31.7,31.7,0,0,1,1.751,4.044,13.831,13.831,0,0,1,.686,2.211,17.071,17.071,0,0,1,.524,2.342c.1.8.3,1.623.338,2.464S491.758,447.666,491.806,448.539Z" transform="translate(-469.66 -410.946)"/></g></g><g transform="translate(268.942 398.876)"><g transform="translate(0)"><path class="i" d="M563.521,348.394l4.361-.873c-1.758-4.393-3.5-9.081-6.309-12.879C563.023,339.079,563.2,343.7,563.521,348.394Z" transform="translate(-561.573 -334.643)"/></g></g><g transform="translate(271.825 404.644)"><g transform="translate(0)"><path class="i" d="M561.942,344.922l3.978-1.991c-1.724-1.576-3.343-3.813-5.156-5.591C561.258,339.787,561.328,342.208,561.942,344.922Z" transform="translate(-560.764 -337.34)"/></g></g><g transform="translate(269.885 402.579)"><g transform="translate(0)"><path class="i" d="M562,345.026h4.448l-2.542-8.652Z" transform="translate(-562.002 -336.374)"/></g></g><g transform="translate(271.844 400.833)"><g transform="translate(0)"><path class="i" d="M561.578,343.071h4.448a11.432,11.432,0,0,0-2.162-4.438,21.665,21.665,0,0,0-3.21-3.075,20.318,20.318,0,0,1,1.163,3.941A8.164,8.164,0,0,1,561.578,343.071Z" transform="translate(-560.654 -335.558)"/></g></g></g><path class="i" d="M403.157,428.922a6.372,6.372,0,1,0,6.373-6.371A6.373,6.373,0,0,0,403.157,428.922Z" transform="translate(201.026 164.328)"/><path class="i" d="M410.44,437.916a2.124,2.124,0,1,0,2.124-2.124A2.122,2.122,0,0,0,410.44,437.916Z" transform="translate(186.664 179.405)"/><path class="i" d="M421.032,424.721a2.833,2.833,0,1,0,2.834-2.832A2.833,2.833,0,0,0,421.032,424.721Z" transform="translate(152.002 163.574)"/><path class="i" d="M663.338,342.719a4.247,4.247,0,1,0,4.247-4.247A4.247,4.247,0,0,0,663.338,342.719Z" transform="translate(-611.337 68.593)"/><path class="i" d="M643.477,341.966a2.832,2.832,0,1,0,2.832-2.832A2.832,2.832,0,0,0,643.477,341.966Z" transform="translate(-546.169 69.346)"/><path class="i" d="M657.379,359.795a2.125,2.125,0,1,0,2.126-2.124A2.126,2.126,0,0,0,657.379,359.795Z" transform="translate(-588.389 90.453)"/></g></g><g transform="translate(634.639 424.403)"><ellipse class="j" cx="46.811" cy="46.811" rx="46.811" ry="46.811" transform="translate(2.001 6.547)"/><g transform="translate(0)"><path class="i" d="M414,362.207l2.262,24.376-18.1,14.567-20.078-6.383-.685-25.607L395.169,355.1Z" transform="translate(-366.129 -336.874)"/><path class="i" d="M365.679,437.847a53.785,53.785,0,0,1-15.167-37.437,52.973,52.973,0,0,0,4.093,20.155,51.751,51.751,0,0,0,8.815,14l19.75,6.14,5.608,9.491c-.227-.013-.438-.056-.663-.073a51.659,51.659,0,0,0,58.368-76.335l-5.841,1.572c-.009,1.666.017,3.336-.015,5a99.566,99.566,0,0,1-.684,11.153,98.989,98.989,0,0,0-1.448-10.993c-.3-1.7-.652-3.4-.977-5.1L419.036,364.6l-13.843,2.823,11.059-5.612-7.169-11.352,1.623-1.042.152.009a50.037,50.037,0,0,0-7.592-.706,51.6,51.6,0,0,0-48.66,31.532,52.975,52.975,0,0,0-4.093,20.157,53.832,53.832,0,0,1,91.352-38.6A54.359,54.359,0,0,1,453.9,379.435a53.845,53.845,0,0,1,0,41.952,53.733,53.733,0,0,1-50.636,32.852,53.549,53.549,0,0,1-25.24-6.865A40.355,40.355,0,0,1,365.679,437.847Z" transform="translate(-350.511 -346.579)"/><path class="i" d="M360.834,403.886c2.156-.28,4.3-.642,6.433-1.039,3.475-.667,6.942-1.441,10.372-2.273l5.253-17.374L368.4,370.508l16.893,9.913,18.27-8.371,9,9.682-7.269,20.082-16.75,11.594-.049-.041-3.473,5.27,1.856-6.6-9.211-7.588c-3.394.244-6.777.434-10.171.526-2.2.047-4.408.053-6.611-.021a28.678,28.678,0,0,1-6.542-.832A28.332,28.332,0,0,0,360.834,403.886Z" transform="translate(-313.103 -319.333)"/></g></g><path class="k" d="M572.4,304.012s-19.389,101.483-45.427,132.946" transform="translate(-207.5 29.355)"/><path class="l" d="M579.711,304.012s-20.779,97.34-48.682,127.521" transform="translate(-223.491 29.355)"/><ellipse class="c" cx="43.842" cy="7.485" rx="43.842" ry="7.485" transform="translate(630.898 703.885)"/></g></g></svg>