<svg xmlns="http://www.w3.org/2000/svg" width="36" height="36" viewBox="0 0 36 36"><defs><style>.a{fill:#dfe5fb;}.b{fill:#3b5de7;}</style></defs><g transform="translate(-297 -4030)"><circle class="a" cx="18" cy="18" r="18" transform="translate(297 4030)"/><path class="b" d="M4.168,18.62H.308V6.189h3.86ZM2.236,4.493A2.246,2.246,0,1,1,4.471,2.236,2.255,2.255,0,0,1,2.236,4.493ZM18.616,18.62H14.764V12.569c0-1.442-.029-3.292-2.007-3.292-2.007,0-2.315,1.567-2.315,3.188V18.62H6.586V6.189h3.7v1.7h.054a4.056,4.056,0,0,1,3.653-2.007c3.907,0,4.625,2.573,4.625,5.914V18.62Z" transform="translate(306 4038.999)"/></g></svg>