<svg xmlns="http://www.w3.org/2000/svg" width="64" height="64" viewBox="0 0 64 64"><defs><style>.a{fill:none;}.b{fill:#ffbb57;}.c{fill:#fff;}.d{fill:#3b5de7;}.e{fill:#eeb902;}.f{fill:#ff715b;}.g{fill:#45cb85;}</style></defs><g transform="translate(-1568 -1374)"><rect class="a" width="64" height="64" transform="translate(1568 1374)"/><g transform="translate(1567.922 1374)"><path class="b" d="M61.935,13.132V10.868l-1.828-.806a8.58,8.58,0,0,0-.428-1.369l1.007-1.737a10.214,10.214,0,0,0-1.311-1.832l-1.934.443a8.35,8.35,0,0,0-1.134-.839l-.185-2.021A9.761,9.761,0,0,0,54.02,2L52.7,3.529H51.3L49.98,2a9.76,9.76,0,0,0-2.1.707l-.185,2.021a8.366,8.366,0,0,0-1.134.838l-1.934-.443a10.218,10.218,0,0,0-1.311,1.832L44.32,8.693a8.58,8.58,0,0,0-.428,1.369l-1.828.807v2.264l1.828.806a8.588,8.588,0,0,0,.428,1.369l-1.007,1.737a10.217,10.217,0,0,0,1.311,1.832l1.934-.443a8.344,8.344,0,0,0,1.134.839l.185,2.021a9.764,9.764,0,0,0,2.1.707L51.3,20.471h1.4L54.02,22a9.768,9.768,0,0,0,2.1-.707l.185-2.021a8.362,8.362,0,0,0,1.134-.838l1.934.443a10.217,10.217,0,0,0,1.311-1.832L59.68,15.307a8.577,8.577,0,0,0,.428-1.369Z"/><circle class="c" cx="6" cy="6" r="6" transform="translate(46 6)"/><path class="d" d="M25.922,15.358V12.642l-2.193-.968a10.3,10.3,0,0,0-.513-1.642l1.208-2.085a12.259,12.259,0,0,0-1.573-2.2l-2.32.531a10.016,10.016,0,0,0-1.36-1.006l-.222-2.425A11.717,11.717,0,0,0,16.424,2L14.842,3.835H13.158L11.576,2a11.715,11.715,0,0,0-2.525.849L8.83,5.274A10.022,10.022,0,0,0,7.469,6.28l-2.32-.531a12.26,12.26,0,0,0-1.573,2.2l1.208,2.085a10.3,10.3,0,0,0-.513,1.643l-2.193.968v2.716l2.193.968a10.3,10.3,0,0,0,.513,1.642L3.575,20.053a12.259,12.259,0,0,0,1.573,2.2l2.32-.531a10.02,10.02,0,0,0,1.36,1.006l.222,2.425A11.716,11.716,0,0,0,11.576,26l1.581-1.835h1.685L16.424,26a11.719,11.719,0,0,0,2.525-.849l.222-2.425a10.028,10.028,0,0,0,1.36-1.006l2.32.531a12.261,12.261,0,0,0,1.573-2.2l-1.208-2.085a10.3,10.3,0,0,0,.513-1.643Z"/><circle class="c" cx="8" cy="8" r="8" transform="translate(6 6)"/><path class="b" d="M61.886,49.705V46.295L59.8,45.856a11.879,11.879,0,0,0-.513-1.9l1.6-1.433a13.966,13.966,0,0,0-1.716-2.936l-2.018.663a12.064,12.064,0,0,0-1.4-1.4l.663-2.018a13.964,13.964,0,0,0-2.936-1.717l-1.433,1.6a11.889,11.889,0,0,0-1.9-.513l-.439-2.088H46.295L45.856,36.2a11.886,11.886,0,0,0-1.9.513l-1.433-1.6a13.965,13.965,0,0,0-2.936,1.716l.663,2.018a12.064,12.064,0,0,0-1.4,1.4l-2.018-.663a13.963,13.963,0,0,0-1.717,2.936l1.6,1.433a11.879,11.879,0,0,0-.513,1.9l-2.088.439v3.411l2.088.439a11.877,11.877,0,0,0,.513,1.9l-1.6,1.433a13.966,13.966,0,0,0,1.716,2.936l2.018-.663a12.064,12.064,0,0,0,1.4,1.4l-.663,2.018a13.964,13.964,0,0,0,2.936,1.717l1.433-1.6a11.887,11.887,0,0,0,1.9.513l.439,2.088h3.411l.439-2.088a11.885,11.885,0,0,0,1.9-.513l1.433,1.6a13.966,13.966,0,0,0,2.936-1.716l-.663-2.018a12.069,12.069,0,0,0,1.4-1.4l2.018.663a13.964,13.964,0,0,0,1.717-2.936l-1.6-1.433a11.888,11.888,0,0,0,.513-1.9Z"/><circle class="c" cx="10" cy="10" r="10" transform="translate(38 38)"/><circle class="e" cx="6" cy="6" r="6" transform="translate(8 8)"/><circle class="f" cx="4" cy="4" r="4" transform="translate(48 8)"/><circle class="g" cx="8" cy="8" r="8" transform="translate(40 40)"/><path class="d" d="M30,13h8v2H30Z"/><path class="d" d="M30.394,47.081l-7-3A1,1,0,0,0,22,45v2H10V31H8V48a1,1,0,0,0,1,1H22v2a1,1,0,0,0,1,1,.986.986,0,0,0,.394-.081l7-3a1,1,0,0,0,0-1.838Z"/><path class="d" d="M47,52a1,1,0,0,1-.707-.293l-3-3,1.414-1.414,2.226,2.226,4.3-5.159,1.537,1.281-5,6a1,1,0,0,1-.724.358H47Z"/></g></g></svg>