<svg xmlns="http://www.w3.org/2000/svg" width="64" height="64" viewBox="0 0 64 64"><defs><style>.a{fill:none;}.b{fill:#ff715b;}.c{fill:#3b5de7;}.d{fill:#ced6f9;}.e{fill:#eeb902;}.f{fill:#ededf4;}.g{fill:#45cb85;}</style></defs><g transform="translate(-718 -1351)"><rect class="a" width="64" height="64" transform="translate(718 1351)"/><g transform="translate(718 1351)"><path class="b" d="M52.935,21.132V18.868l-1.828-.806a8.581,8.581,0,0,0-.428-1.369l1.007-1.737a10.214,10.214,0,0,0-1.311-1.832l-1.934.443a8.35,8.35,0,0,0-1.134-.839l-.185-2.021A9.761,9.761,0,0,0,45.02,10L43.7,11.529H42.3L40.98,10a9.76,9.76,0,0,0-2.1.707l-.185,2.021a8.366,8.366,0,0,0-1.134.838l-1.934-.443a10.218,10.218,0,0,0-1.311,1.832l1.007,1.737a8.58,8.58,0,0,0-.428,1.369l-1.828.807v2.264l1.828.806a8.588,8.588,0,0,0,.428,1.369l-1.007,1.737a10.217,10.217,0,0,0,1.311,1.832l1.934-.443a8.344,8.344,0,0,0,1.134.839l.185,2.021a9.764,9.764,0,0,0,2.1.707L42.3,28.471h1.4L45.02,30a9.768,9.768,0,0,0,2.1-.707l.185-2.021a8.362,8.362,0,0,0,1.134-.838l1.934.443a10.217,10.217,0,0,0,1.311-1.832L50.68,23.307a8.577,8.577,0,0,0,.428-1.369ZM43,24a4,4,0,1,1,4-4A4,4,0,0,1,43,24Z"/><circle class="c" cx="18" cy="18" r="18" transform="translate(11 2)"/><circle class="d" cx="14" cy="14" r="14" transform="translate(15 6)"/><path class="e" d="M64.1,54.345v-2.51l-2.027-.894a9.514,9.514,0,0,0-.474-1.518L62.716,47.5a11.326,11.326,0,0,0-1.454-2.031l-2.144.491a9.26,9.26,0,0,0-1.257-.93l-.205-2.241A10.824,10.824,0,0,0,55.322,42l-1.461,1.7H52.3L50.842,42a10.822,10.822,0,0,0-2.333.784L48.3,45.025a9.276,9.276,0,0,0-1.257.93L44.9,45.464A11.331,11.331,0,0,0,43.449,47.5l1.117,1.926a9.514,9.514,0,0,0-.474,1.518l-2.027.894v2.51l2.027.894a9.524,9.524,0,0,0,.474,1.518l-1.117,1.926A11.33,11.33,0,0,0,44.9,60.714l2.144-.491a9.254,9.254,0,0,0,1.257.93l.205,2.241a10.828,10.828,0,0,0,2.333.785l1.461-1.7h1.557l1.461,1.7a10.832,10.832,0,0,0,2.333-.784l.205-2.241a9.272,9.272,0,0,0,1.257-.93l2.144.491a11.33,11.33,0,0,0,1.454-2.031L61.6,56.757a9.513,9.513,0,0,0,.474-1.518ZM53.082,57.525a4.436,4.436,0,1,1,4.436-4.436A4.436,4.436,0,0,1,53.082,57.525Z" transform="translate(-2.165 -2.179)"/><path class="f" d="M32,7a17.038,17.038,0,0,1,2.742.241A13.931,13.931,0,0,0,15.143,21.9,16.993,16.993,0,0,1,32,7Z"/><path class="b" d="M37.169,8.647c-.072.024-.146.043-.217.068l-.487-.543a13.955,13.955,0,0,0-1.453-.8,14.227,14.227,0,0,0-2.429,1.46l.663,2.018a12.064,12.064,0,0,0-1.4,1.4l-2.018-.663a13.963,13.963,0,0,0-1.717,2.936l1.6,1.433a11.879,11.879,0,0,0-.513,1.9l-2.088.439v3.411l2.088.439a11.877,11.877,0,0,0,.513,1.9l-1.6,1.433a13.966,13.966,0,0,0,1.716,2.936l2.018-.663a12.064,12.064,0,0,0,1.4,1.4l-.663,2.018a14.221,14.221,0,0,0,2.43,1.46,13.97,13.97,0,0,0,1.453-.8l.487-.544c.071.026.145.044.217.068a13.969,13.969,0,0,0,0-22.707Z"/><path class="g" d="M43,20a13.925,13.925,0,0,0-2.5-7.975,7.99,7.99,0,0,0,0,15.949A13.925,13.925,0,0,0,43,20Z"/><path class="c" d="M14.613,35.291,2,51l5,4L19.8,39.062Z"/><path class="c" d="M14.5,29.651,11,34l11,8,3.479-4.349Z"/><path class="d" d="M52.654,46a6.654,6.654,0,1,0,6.654,6.654A6.654,6.654,0,0,0,52.654,46Z" transform="translate(-1.736 -1.743)"/><path class="c" d="M11.624,29.165c-1.118-.31-1.24-.445-1.24-.845a1.124,1.124,0,0,1,1.023-1.05,1.124,1.124,0,0,1,1.023,1.05h1.635a2.755,2.755,0,0,0-1.84-2.531V24H10.589v1.789a2.755,2.755,0,0,0-1.84,2.531c0,1.746,1.526,2.169,2.438,2.421,1.12.311,1.242.446,1.242.849,0,.568-.918.585-1.023.585s-1.023-.017-1.023-.585H8.749a2.179,2.179,0,0,0,1.84,2.118v1.737h1.635V33.708a2.179,2.179,0,0,0,1.84-2.118c0-1.748-1.528-2.171-2.44-2.424Z" transform="translate(39.511 21.188)"/></g></g></svg>