<svg xmlns="http://www.w3.org/2000/svg" width="36" height="36" viewBox="0 0 36 36"><defs><style>.a{fill:#dfe5fb;}.b{fill:#3b5de7;}</style></defs><g transform="translate(-210 -4030)"><circle class="a" cx="18" cy="18" r="18" transform="translate(210 4030)"/><path class="b" d="M18.674,5.18a7.8,7.8,0,0,1-2.2.6,3.865,3.865,0,0,0,1.686-2.123,7.923,7.923,0,0,1-2.438.923A3.834,3.834,0,0,0,9.085,7.2a3.925,3.925,0,0,0,.1.876,10.863,10.863,0,0,1-7.906-4A3.759,3.759,0,0,0,.759,6.012,3.836,3.836,0,0,0,2.465,9.205a3.823,3.823,0,0,1-1.737-.48v.048A3.838,3.838,0,0,0,3.8,12.535,3.871,3.871,0,0,1,2.08,12.6a3.849,3.849,0,0,0,3.589,2.664A7.693,7.693,0,0,1,.912,16.907,8.142,8.142,0,0,1,0,16.854a10.911,10.911,0,0,0,5.891,1.722A10.834,10.834,0,0,0,16.8,7.673c0-.163,0-.327-.012-.491A7.746,7.746,0,0,0,18.711,5.2l-.037-.016Z" transform="translate(219 4038.631)"/></g></svg>